<?xml version="1.0" encoding="UTF-8"?>
<svg id="Layer_1" data-name="Layer 1" xmlns="http://www.w3.org/2000/svg" viewBox="0 0 2000 2000">
  <path d="M1315.65,475.95v32.32h15.62c89.02,0,150.26,89.48,117.97,172.47l-323.71,832.8-2.46,6.32-26.21,67.44-411.08-965.82c-22.81-53.65,16.53-113.2,74.85-113.2h39.76v-32.32H244.35v32.32h28.49c60.32,0,114.85,36.04,138.47,91.55l550.88,1294.34h73.59l536.04-1276.44c27.86-66.32,92.74-109.45,164.64-109.45h19.19v-32.32h-440Z"/>
  <path d="M484.75,243.68c.18-.14.35-.28.56-.39,2.14-1.51,4.28-2.98,6.39-4.42,11.54-7.76,22.81-14.56,33.76-20.6,2.25-1.23,4.49-2.42,6.74-3.61,71.48-37.65,127.2-40.85,136.26-41.16h.74c7.12-.67,14.21-1.09,21.26-1.26,2.07-.03,4.18-.07,6.25-.07h175.49v758.12l2.25,5.26,125.55,295.04,109.06,256.27.14.32V172.17h193.31c2.32,0,4.67.04,7.02.07,7.3.14,14.63.6,22,1.26,45.79,4.35,93.1,18.84,136.26,41.16,2.25,1.19,4.49,2.39,6.74,3.61,11.62,6.28,22.91,13.16,33.76,20.6,2.18,1.44,4.28,2.91,6.39,4.42.21.1.39.25.56.39,53.69,37.51,111.87,95.13,164.01,183.56l-22.56-255.07-5.86-66.32H349.13l-5.86,66.32-22.53,255.07c52.14-88.43,110.32-146.04,164.01-183.56Z"/>
</svg>