<?xml version="1.0" encoding="UTF-8"?>
<svg id="Layer_1" data-name="Layer 1" xmlns="http://www.w3.org/2000/svg" viewBox="0 0 2000 2000">
  <defs>
    <style>
      .cls-1 {
        fill: #fff;
      }
    </style>
  </defs>
  <polygon class="cls-1" points="999.65 1041.59 1000.35 1039.8 1000.35 1043.24 999.65 1041.59"/>
  <g>
    <polygon class="cls-1" points="999.65 1072.87 1000.35 1071.07 1000.35 1074.52 999.65 1072.87"/>
    <g>
      <path class="cls-1" d="M1089.95,775.38v9.21h4.45c25.37,0,42.82,25.5,33.62,49.15l-92.25,237.33-.7,1.8-7.47,19.22-117.15-275.24c-6.5-15.29,4.71-32.26,21.33-32.26h11.33v-9.21h-158.46v9.21h8.12c17.19,0,32.73,10.27,39.46,26.09l156.99,368.86h20.97l152.76-363.76c7.94-18.9,26.43-31.19,46.92-31.19h5.47v-9.21h-125.39Z"/>
      <path class="cls-1" d="M853.16,709.19c.05-.04.1-.08.16-.11.61-.43,1.22-.85,1.82-1.26,3.29-2.21,6.5-4.15,9.62-5.87.64-.35,1.28-.69,1.92-1.03,20.37-10.73,36.25-11.64,38.83-11.73h.21c2.03-.19,4.05-.31,6.06-.36.59,0,1.19-.02,1.78-.02h50.01v216.05l.64,1.5,35.78,84.08,31.08,73.03.04.09v-374.75h55.09c.66,0,1.33.01,2,.02,2.08.04,4.17.17,6.27.36,13.05,1.24,26.53,5.37,38.83,11.73.64.34,1.28.68,1.92,1.03,3.31,1.79,6.53,3.75,9.62,5.87.62.41,1.22.83,1.82,1.26.06.03.11.07.16.11,15.3,10.69,31.88,27.11,46.74,52.31l-6.43-72.69-1.67-18.9h-370.95l-1.67,18.9-6.42,72.69c14.86-25.2,31.44-41.62,46.74-52.31Z"/>
    </g>
    <g>
      <g>
        <g>
          <path class="cls-1" d="M640.3,1315.14c-1.01-1.32-2.23-2.3-3.66-2.92-.44-.19-.95-.37-1.55-.56l.42-.28c.85-.56,1.55-1.35,2.13-2.38.58-1.03.86-2.17.86-3.41,0-1-.21-1.96-.63-2.9-.42-.93-1.02-1.76-1.79-2.47-1.69-1.59-3.94-2.39-6.78-2.39h-8.69l-.04,30.37h11.16c1.4,0,2.73-.23,3.99-.68,1.27-.45,2.36-1.08,3.3-1.89.9-.81,1.59-1.74,2.08-2.78.48-1.05.72-2.11.72-3.2,0-1.68-.51-3.19-1.52-4.51ZM632.99,1310.45c-.56.21-1.12.37-1.68.46-.56.1-1.26.14-2.1.14h-6.49v-11.07h6.58c1.5,0,2.78.27,3.86.8,1.07.53,1.88,1.22,2.42,2.08.55.85.82,1.76.82,2.73,0,1.21-.36,2.24-1.1,3.08-.73.84-1.5,1.43-2.31,1.78ZM622.72,1313.2h7.47c2.27,0,4.16.33,5.65.98,1.06.47,1.97,1.19,2.73,2.18.77.98,1.15,2.07,1.15,3.29,0,1.09-.33,2.12-.98,3.1-.66.99-1.59,1.79-2.81,2.41-1.21.62-2.61.93-4.2.93h-9.01v-12.89Z"/>
          <path class="cls-1" d="M636.01,1302.59c-.6-.93-1.48-1.69-2.63-2.26-1.14-.56-2.51-.85-4.08-.85h-7.08v12.07h6.99c.86,0,1.6-.05,2.18-.14.59-.1,1.19-.27,1.8-.5.87-.37,1.71-1.02,2.49-1.91.81-.93,1.22-2.08,1.22-3.41,0-1.06-.3-2.07-.89-3ZM629.22,1310.55h-5.99v-10.07h6.08c1.41,0,2.64.25,3.63.75.99.48,1.74,1.12,2.23,1.89.49.78.74,1.61.74,2.47,0,1.1-.32,2-.97,2.75-.68.78-1.4,1.33-2.12,1.64-.53.2-1.06.35-1.58.44-.53.09-1.21.13-2.02.13ZM638.97,1316.05c-.81-1.04-1.8-1.83-2.93-2.32-1.55-.68-3.52-1.03-5.85-1.03h-7.97v13.89h9.51c1.66,0,3.15-.33,4.43-.99,1.29-.65,2.29-1.52,2.99-2.57.71-1.06,1.07-2.2,1.07-3.38,0-1.32-.42-2.54-1.25-3.6ZM631.74,1325.59h-8.51v-11.89h6.97c2.19,0,4.03.32,5.45.94.98.43,1.83,1.11,2.54,2.02.7.9,1.04,1.88,1.04,2.99,0,.98-.3,1.93-.9,2.83s-1.48,1.66-2.61,2.24c-1.14.58-2.48.87-3.98.87ZM638.97,1316.05c-.81-1.04-1.8-1.83-2.93-2.32-1.55-.68-3.52-1.03-5.85-1.03h-7.97v13.89h9.51c1.66,0,3.15-.33,4.43-.99,1.29-.65,2.29-1.52,2.99-2.57.71-1.06,1.07-2.2,1.07-3.38,0-1.32-.42-2.54-1.25-3.6ZM631.74,1325.59h-8.51v-11.89h6.97c2.19,0,4.03.32,5.45.94.98.43,1.83,1.11,2.54,2.02.7.9,1.04,1.88,1.04,2.99,0,.98-.3,1.93-.9,2.83s-1.48,1.66-2.61,2.24c-1.14.58-2.48.87-3.98.87ZM636.01,1302.59c-.6-.93-1.48-1.69-2.63-2.26-1.14-.56-2.51-.85-4.08-.85h-7.08v12.07h6.99c.86,0,1.6-.05,2.18-.14.59-.1,1.19-.27,1.8-.5.87-.37,1.71-1.02,2.49-1.91.81-.93,1.22-2.08,1.22-3.41,0-1.06-.3-2.07-.89-3ZM629.22,1310.55h-5.99v-10.07h6.08c1.41,0,2.64.25,3.63.75.99.48,1.74,1.12,2.23,1.89.49.78.74,1.61.74,2.47,0,1.1-.32,2-.97,2.75-.68.78-1.4,1.33-2.12,1.64-.53.2-1.06.35-1.58.44-.53.09-1.21.13-2.02.13ZM636.01,1302.59c-.6-.93-1.48-1.69-2.63-2.26-1.14-.56-2.51-.85-4.08-.85h-7.08v12.07h6.99c.86,0,1.6-.05,2.18-.14.59-.1,1.19-.27,1.8-.5.87-.37,1.71-1.02,2.49-1.91.81-.93,1.22-2.08,1.22-3.41,0-1.06-.3-2.07-.89-3ZM629.22,1310.55h-5.99v-10.07h6.08c1.41,0,2.64.25,3.63.75.99.48,1.74,1.12,2.23,1.89.49.78.74,1.61.74,2.47,0,1.1-.32,2-.97,2.75-.68.78-1.4,1.33-2.12,1.64-.53.2-1.06.35-1.58.44-.53.09-1.21.13-2.02.13ZM638.97,1316.05c-.81-1.04-1.8-1.83-2.93-2.32-1.55-.68-3.52-1.03-5.85-1.03h-7.97v13.89h9.51c1.66,0,3.15-.33,4.43-.99,1.29-.65,2.29-1.52,2.99-2.57.71-1.06,1.07-2.2,1.07-3.38,0-1.32-.42-2.54-1.25-3.6ZM631.74,1325.59h-8.51v-11.89h6.97c2.19,0,4.03.32,5.45.94.98.43,1.83,1.11,2.54,2.02.7.9,1.04,1.88,1.04,2.99,0,.98-.3,1.93-.9,2.83s-1.48,1.66-2.61,2.24c-1.14.58-2.48.87-3.98.87ZM638.97,1316.05c-.81-1.04-1.8-1.83-2.93-2.32-1.55-.68-3.52-1.03-5.85-1.03h-7.97v13.89h9.51c1.66,0,3.15-.33,4.43-.99,1.29-.65,2.29-1.52,2.99-2.57.71-1.06,1.07-2.2,1.07-3.38,0-1.32-.42-2.54-1.25-3.6ZM631.74,1325.59h-8.51v-11.89h6.97c2.19,0,4.03.32,5.45.94.98.43,1.83,1.11,2.54,2.02.7.9,1.04,1.88,1.04,2.99,0,.98-.3,1.93-.9,2.83s-1.48,1.66-2.61,2.24c-1.14.58-2.48.87-3.98.87ZM631.4,1311.41c.59-.1,1.19-.27,1.8-.5.87-.37,1.71-1.02,2.49-1.91.81-.93,1.22-2.08,1.22-3.41,0-1.06-.3-2.07-.89-3-.6-.93-1.48-1.69-2.63-2.26-1.14-.56-2.51-.85-4.08-.85h-7.08v12.07h6.99c.86,0,1.6-.05,2.18-.14ZM623.22,1300.48h6.08c1.41,0,2.64.25,3.63.75.99.48,1.74,1.12,2.23,1.89.49.78.74,1.61.74,2.47,0,1.1-.32,2-.97,2.75-.68.78-1.4,1.33-2.12,1.64-.53.2-1.06.35-1.58.44-.53.09-1.21.13-2.02.13h-5.99v-10.07ZM640.71,1314.84c-1.06-1.39-2.36-2.42-3.86-3.08h0c-.2-.08-.41-.17-.64-.25.73-.58,1.36-1.34,1.89-2.27.61-1.1.92-2.33.92-3.65,0-1.06-.22-2.11-.67-3.1-.45-.99-1.09-1.88-1.91-2.64-1.77-1.67-4.17-2.52-7.12-2.52h-9.18l-.05,31.37h11.66c1.45,0,2.85-.24,4.16-.71,1.32-.47,2.48-1.14,3.46-1.99.95-.85,1.69-1.84,2.2-2.94.51-1.11.77-2.25.77-3.41,0-1.79-.54-3.41-1.62-4.81ZM631.74,1327.7h-10.66l.04-29.37h8.19c2.69,0,4.85.76,6.44,2.25.72.67,1.29,1.45,1.68,2.32.39.86.58,1.77.58,2.69,0,1.15-.27,2.22-.8,3.16-.53.96-1.19,1.7-1.96,2.21l-1.29.86.99.32c.57.18,1.08.36,1.5.54,1.34.59,2.51,1.52,3.47,2.76.93,1.23,1.41,2.65,1.41,4.21,0,1.01-.23,2.02-.68,2.99-.45.98-1.11,1.86-1.95,2.61-.88.76-1.94,1.37-3.13,1.8-1.2.43-2.49.65-3.83.65ZM640.22,1319.65c0-1.32-.42-2.54-1.25-3.6-.81-1.04-1.8-1.83-2.93-2.32-1.55-.68-3.52-1.03-5.85-1.03h-7.97v13.89h9.51c1.66,0,3.15-.33,4.43-.99,1.29-.65,2.29-1.52,2.99-2.57.71-1.06,1.07-2.2,1.07-3.38ZM631.74,1325.59h-8.51v-11.89h6.97c2.19,0,4.03.32,5.45.94.98.43,1.83,1.11,2.54,2.02.7.9,1.04,1.88,1.04,2.99,0,.98-.3,1.93-.9,2.83s-1.48,1.66-2.61,2.24c-1.14.58-2.48.87-3.98.87ZM631.4,1311.41c.59-.1,1.19-.27,1.8-.5.87-.37,1.71-1.02,2.49-1.91.81-.93,1.22-2.08,1.22-3.41,0-1.06-.3-2.07-.89-3-.6-.93-1.48-1.69-2.63-2.26-1.14-.56-2.51-.85-4.08-.85h-7.08v12.07h6.99c.86,0,1.6-.05,2.18-.14ZM623.22,1300.48h6.08c1.41,0,2.64.25,3.63.75.99.48,1.74,1.12,2.23,1.89.49.78.74,1.61.74,2.47,0,1.1-.32,2-.97,2.75-.68.78-1.4,1.33-2.12,1.64-.53.2-1.06.35-1.58.44-.53.09-1.21.13-2.02.13h-5.99v-10.07ZM636.01,1302.59c-.6-.93-1.48-1.69-2.63-2.26-1.14-.56-2.51-.85-4.08-.85h-7.08v12.07h6.99c.86,0,1.6-.05,2.18-.14.59-.1,1.19-.27,1.8-.5.87-.37,1.71-1.02,2.49-1.91.81-.93,1.22-2.08,1.22-3.41,0-1.06-.3-2.07-.89-3ZM629.22,1310.55h-5.99v-10.07h6.08c1.41,0,2.64.25,3.63.75.99.48,1.74,1.12,2.23,1.89.49.78.74,1.61.74,2.47,0,1.1-.32,2-.97,2.75-.68.78-1.4,1.33-2.12,1.64-.53.2-1.06.35-1.58.44-.53.09-1.21.13-2.02.13ZM638.97,1316.05c-.81-1.04-1.8-1.83-2.93-2.32-1.55-.68-3.52-1.03-5.85-1.03h-7.97v13.89h9.51c1.66,0,3.15-.33,4.43-.99,1.29-.65,2.29-1.52,2.99-2.57.71-1.06,1.07-2.2,1.07-3.38,0-1.32-.42-2.54-1.25-3.6ZM631.74,1325.59h-8.51v-11.89h6.97c2.19,0,4.03.32,5.45.94.98.43,1.83,1.11,2.54,2.02.7.9,1.04,1.88,1.04,2.99,0,.98-.3,1.93-.9,2.83s-1.48,1.66-2.61,2.24c-1.14.58-2.48.87-3.98.87ZM638.97,1316.05c-.81-1.04-1.8-1.83-2.93-2.32-1.55-.68-3.52-1.03-5.85-1.03h-7.97v13.89h9.51c1.66,0,3.15-.33,4.43-.99,1.29-.65,2.29-1.52,2.99-2.57.71-1.06,1.07-2.2,1.07-3.38,0-1.32-.42-2.54-1.25-3.6ZM631.74,1325.59h-8.51v-11.89h6.97c2.19,0,4.03.32,5.45.94.98.43,1.83,1.11,2.54,2.02.7.9,1.04,1.88,1.04,2.99,0,.98-.3,1.93-.9,2.83s-1.48,1.66-2.61,2.24c-1.14.58-2.48.87-3.98.87ZM636.01,1302.59c-.6-.93-1.48-1.69-2.63-2.26-1.14-.56-2.51-.85-4.08-.85h-7.08v12.07h6.99c.86,0,1.6-.05,2.18-.14.59-.1,1.19-.27,1.8-.5.87-.37,1.71-1.02,2.49-1.91.81-.93,1.22-2.08,1.22-3.41,0-1.06-.3-2.07-.89-3ZM629.22,1310.55h-5.99v-10.07h6.08c1.41,0,2.64.25,3.63.75.99.48,1.74,1.12,2.23,1.89.49.78.74,1.61.74,2.47,0,1.1-.32,2-.97,2.75-.68.78-1.4,1.33-2.12,1.64-.53.2-1.06.35-1.58.44-.53.09-1.21.13-2.02.13ZM636.01,1302.59c-.6-.93-1.48-1.69-2.63-2.26-1.14-.56-2.51-.85-4.08-.85h-7.08v12.07h6.99c.86,0,1.6-.05,2.18-.14.59-.1,1.19-.27,1.8-.5.87-.37,1.71-1.02,2.49-1.91.81-.93,1.22-2.08,1.22-3.41,0-1.06-.3-2.07-.89-3ZM629.22,1310.55h-5.99v-10.07h6.08c1.41,0,2.64.25,3.63.75.99.48,1.74,1.12,2.23,1.89.49.78.74,1.61.74,2.47,0,1.1-.32,2-.97,2.75-.68.78-1.4,1.33-2.12,1.64-.53.2-1.06.35-1.58.44-.53.09-1.21.13-2.02.13ZM638.97,1316.05c-.81-1.04-1.8-1.83-2.93-2.32-1.55-.68-3.52-1.03-5.85-1.03h-7.97v13.89h9.51c1.66,0,3.15-.33,4.43-.99,1.29-.65,2.29-1.52,2.99-2.57.71-1.06,1.07-2.2,1.07-3.38,0-1.32-.42-2.54-1.25-3.6ZM631.74,1325.59h-8.51v-11.89h6.97c2.19,0,4.03.32,5.45.94.98.43,1.83,1.11,2.54,2.02.7.9,1.04,1.88,1.04,2.99,0,.98-.3,1.93-.9,2.83s-1.48,1.66-2.61,2.24c-1.14.58-2.48.87-3.98.87ZM638.97,1316.05c-.81-1.04-1.8-1.83-2.93-2.32-1.55-.68-3.52-1.03-5.85-1.03h-7.97v13.89h9.51c1.66,0,3.15-.33,4.43-.99,1.29-.65,2.29-1.52,2.99-2.57.71-1.06,1.07-2.2,1.07-3.38,0-1.32-.42-2.54-1.25-3.6ZM631.74,1325.59h-8.51v-11.89h6.97c2.19,0,4.03.32,5.45.94.98.43,1.83,1.11,2.54,2.02.7.9,1.04,1.88,1.04,2.99,0,.98-.3,1.93-.9,2.83s-1.48,1.66-2.61,2.24c-1.14.58-2.48.87-3.98.87ZM636.01,1302.59c-.6-.93-1.48-1.69-2.63-2.26-1.14-.56-2.51-.85-4.08-.85h-7.08v12.07h6.99c.86,0,1.6-.05,2.18-.14.59-.1,1.19-.27,1.8-.5.87-.37,1.71-1.02,2.49-1.91.81-.93,1.22-2.08,1.22-3.41,0-1.06-.3-2.07-.89-3ZM629.22,1310.55h-5.99v-10.07h6.08c1.41,0,2.64.25,3.63.75.99.48,1.74,1.12,2.23,1.89.49.78.74,1.61.74,2.47,0,1.1-.32,2-.97,2.75-.68.78-1.4,1.33-2.12,1.64-.53.2-1.06.35-1.58.44-.53.09-1.21.13-2.02.13Z"/>
        </g>
        <g>
          <path class="cls-1" d="M685.5,1316.76c0,1.31-.24,2.55-.72,3.74-.48,1.18-1.16,2.21-2.03,3.08-.9.9-1.93,1.6-3.08,2.08-1.15.48-2.37.72-3.64.72s-2.45-.24-3.6-.72c-1.15-.48-2.18-1.17-3.08-2.08-.87-.87-1.55-1.9-2.03-3.08-.48-1.18-.72-2.43-.72-3.74v-18.92h-2.1v18.92c0,1.59.29,3.1.86,4.53.58,1.43,1.41,2.68,2.5,3.74,1.09,1.12,2.34,1.99,3.76,2.59,1.42.61,2.89.91,4.41.91s3.08-.3,4.48-.91c1.4-.61,2.65-1.47,3.74-2.59,1.09-1.06,1.92-2.3,2.5-3.74.58-1.43.86-2.94.86-4.53v-18.92h-2.1v18.92Z"/>
          <path class="cls-1" d="M684.99,1297.33v19.42c0,1.24-.23,2.43-.68,3.55-.46,1.12-1.11,2.1-1.93,2.92-.85.85-1.83,1.51-2.92,1.97-2.14.9-4.66.92-6.85,0-1.09-.46-2.07-1.12-2.92-1.97s-1.47-1.8-1.93-2.92c-.45-1.12-.68-2.31-.68-3.55v-19.42h-3.11v19.42c0,1.65.31,3.24.9,4.72.6,1.49,1.48,2.81,2.61,3.9,1.13,1.16,2.45,2.07,3.92,2.7s3.02.95,4.61.95,3.23-.32,4.68-.95c1.46-.63,2.77-1.54,3.89-2.69,1.14-1.1,2.02-2.42,2.62-3.91.59-1.49.9-3.07.9-4.72v-19.42h-3.11ZM687.11,1316.75c0,1.52-.28,2.98-.83,4.35-.55,1.36-1.35,2.56-2.4,3.57-1.04,1.07-2.24,1.91-3.57,2.48-2.61,1.13-5.75,1.18-8.51,0-1.34-.58-2.56-1.41-3.6-2.49-1.04-1-1.84-2.2-2.39-3.56-.55-1.37-.83-2.83-.83-4.35v-18.42h1.11v18.42c0,1.37.25,2.69.76,3.93.5,1.24,1.22,2.33,2.14,3.25.94.94,2.03,1.68,3.24,2.18,2.44,1.03,5.24,1,7.63,0,1.2-.5,2.3-1.24,3.24-2.18.92-.92,1.64-2.01,2.14-3.25.51-1.24.76-2.56.76-3.93v-18.42h1.11v18.42Z"/>
        </g>
        <g>
          <rect class="cls-1" x="712.78" y="1297.84" width="2.1" height="30.36"/>
          <path class="cls-1" d="M712.28,1297.33v31.37h3.1v-31.37h-3.1ZM714.38,1327.7h-1.1v-29.37h1.1v29.37Z"/>
        </g>
        <g>
          <polygon class="cls-1" points="742.58 1297.84 740.47 1297.84 740.47 1328.2 759.63 1328.2 759.63 1326.1 742.58 1326.1 742.58 1297.84"/>
          <path class="cls-1" d="M743.07,1325.59v-28.26h-3.1v31.37h20.15v-3.11h-17.05ZM759.13,1327.7h-18.15v-29.37h1.1v28.26h17.05v1.11Z"/>
        </g>
        <g>
          <polygon class="cls-1" points="777.75 1299.99 789.8 1299.99 789.8 1328.2 791.95 1328.2 791.95 1299.99 803.95 1299.99 803.95 1297.84 777.75 1297.84 777.75 1299.99"/>
          <path class="cls-1" d="M777.24,1297.33v3.15h12.05v28.22h3.15v-28.22h12.01v-3.15h-27.21ZM803.46,1299.48h-12.01v28.22h-1.15v-28.22h-12.05v-1.15h25.21v1.15Z"/>
        </g>
        <g>
          <polygon class="cls-1" points="858.37 1328.2 860.47 1328.2 860.47 1314.14 874.2 1314.14 874.2 1311.94 860.47 1311.94 860.47 1299.99 878.03 1299.99 878.03 1297.84 858.37 1297.84 858.37 1328.2"/>
          <path class="cls-1" d="M878.53,1300.48v-3.15h-20.67v31.37h3.11v-14.06h13.73v-3.2h-13.73v-10.96h17.56ZM873.71,1313.64h-13.73v14.06h-1.11v-29.37h18.67v1.15h-17.56v12.96h13.73v1.2Z"/>
        </g>
        <g>
          <path class="cls-1" d="M914.58,1314.72c.92-.11,1.86-.38,2.83-.82,1.4-.59,2.62-1.56,3.64-2.92,1.03-1.35,1.54-2.89,1.54-4.6,0-1.09-.24-2.15-.72-3.18-.48-1.03-1.18-1.95-2.08-2.76-.93-.84-2.02-1.49-3.27-1.94-1.25-.45-2.59-.68-4.02-.68h-10.6v30.36h2.1v-28.26h8.5c1.59,0,2.99.31,4.2.93,1.21.62,2.15,1.42,2.8,2.41.65.98.98,2.02.98,3.11,0,1.21-.39,2.33-1.17,3.34-.78,1.01-1.7,1.77-2.76,2.27-1.43.59-3.3.89-5.61.89h-3.74l12.61,15.32h2.8l-10.98-13.31c1.03,0,2-.05,2.92-.16Z"/>
          <path class="cls-1" d="M912.71,1315.36c.67-.02,1.32-.07,1.94-.14.96-.12,1.96-.41,2.96-.86,1.47-.62,2.77-1.65,3.85-3.07,1.09-1.44,1.64-3.09,1.64-4.91,0-1.16-.26-2.3-.77-3.39-.51-1.08-1.25-2.06-2.2-2.91-.98-.88-2.13-1.57-3.43-2.04-1.3-.47-2.71-.71-4.19-.71h-11.1v31.37h3.1v-28.26h8c1.5,0,2.84.29,3.98.88,1.13.58,2.01,1.33,2.61,2.23s.9,1.85.9,2.83c0,1.11-.35,2.11-1.07,3.04-.72.94-1.59,1.65-2.55,2.11-1.36.56-3.18.85-5.41.85h-4.8l13.44,16.32h4.1l-11-13.34ZM910.97,1313.38c2.36,0,4.31-.32,5.82-.94,1.12-.53,2.11-1.34,2.94-2.41.84-1.1,1.27-2.33,1.27-3.65,0-1.18-.36-2.32-1.07-3.38-.7-1.05-1.7-1.91-2.99-2.57-1.28-.66-2.77-.99-4.43-.99h-9v28.26h-1.1v-29.37h10.1c1.37,0,2.66.22,3.85.65,1.18.43,2.22,1.05,3.1,1.84.85.76,1.51,1.64,1.96,2.6.45.96.68,1.95.68,2.96,0,1.6-.49,3.04-1.44,4.3-.97,1.28-2.13,2.21-3.45,2.77-.91.41-1.82.67-2.68.77-.89.11-1.85.16-2.86.16h-1.06l10.98,13.32h-1.51l-11.79-14.32h2.68Z"/>
        </g>
        <g>
          <path class="cls-1" d="M973.14,1305.24c-1.37-2.38-3.24-4.27-5.61-5.65-2.36-1.39-4.93-2.08-7.7-2.08s-5.34.69-7.71,2.08c-2.37,1.38-4.24,3.27-5.61,5.65-1.37,2.38-2.05,4.97-2.05,7.78s.68,5.39,2.05,7.77c1.37,2.38,3.24,4.27,5.61,5.65,2.37,1.39,4.93,2.08,7.71,2.08s5.34-.69,7.7-2.08c2.37-1.38,4.24-3.27,5.61-5.65,1.37-2.38,2.05-4.97,2.05-7.77s-.68-5.4-2.05-7.78ZM959.82,1326.37c-2.4,0-4.61-.6-6.64-1.79-2.02-1.2-3.63-2.82-4.83-4.86-1.2-2.04-1.8-4.28-1.8-6.7s.6-4.67,1.8-6.71c1.2-2.04,2.81-3.66,4.83-4.86,2.03-1.19,4.24-1.79,6.64-1.79s4.6.6,6.63,1.79c2.02,1.2,3.63,2.82,4.81,4.86,1.18,2.04,1.78,4.28,1.78,6.71s-.6,4.66-1.78,6.7c-1.18,2.04-2.79,3.66-4.81,4.86-2.03,1.19-4.24,1.79-6.63,1.79Z"/>
          <path class="cls-1" d="M971.7,1306.06c-1.22-2.1-2.9-3.8-4.99-5.04-2.09-1.24-4.41-1.86-6.88-1.86s-4.8.62-6.89,1.86c-2.09,1.24-3.78,2.94-5.01,5.04-1.24,2.11-1.87,4.45-1.87,6.96s.63,4.85,1.87,6.95c1.23,2.11,2.92,3.8,5.01,5.04,2.09,1.24,4.41,1.86,6.89,1.86s4.79-.62,6.88-1.86c2.09-1.24,3.77-2.94,4.99-5.04,1.23-2.11,1.85-4.45,1.85-6.95s-.62-4.85-1.85-6.96ZM959.82,1325.87c-2.3,0-4.44-.58-6.38-1.72-1.94-1.15-3.51-2.73-4.66-4.69-1.15-1.95-1.73-4.12-1.73-6.44s.58-4.5,1.73-6.45c1.15-1.96,2.72-3.53,4.66-4.69,1.94-1.14,4.08-1.72,6.38-1.72s4.44.58,6.37,1.72c1.94,1.15,3.5,2.73,4.64,4.68,1.13,1.96,1.71,4.13,1.71,6.46s-.58,4.5-1.71,6.45c-1.14,1.95-2.7,3.53-4.64,4.68-1.93,1.14-4.08,1.72-6.37,1.72ZM971.7,1306.06c-1.22-2.1-2.9-3.8-4.99-5.04-2.09-1.24-4.41-1.86-6.88-1.86s-4.8.62-6.89,1.86c-2.09,1.24-3.78,2.94-5.01,5.04-1.24,2.11-1.87,4.45-1.87,6.96s.63,4.85,1.87,6.95c1.23,2.11,2.92,3.8,5.01,5.04,2.09,1.24,4.41,1.86,6.89,1.86s4.79-.62,6.88-1.86c2.09-1.24,3.77-2.94,4.99-5.04,1.23-2.11,1.85-4.45,1.85-6.95s-.62-4.85-1.85-6.96ZM959.82,1325.87c-2.3,0-4.44-.58-6.38-1.72-1.94-1.15-3.51-2.73-4.66-4.69-1.15-1.95-1.73-4.12-1.73-6.44s.58-4.5,1.73-6.45c1.15-1.96,2.72-3.53,4.66-4.69,1.94-1.14,4.08-1.72,6.38-1.72s4.44.58,6.37,1.72c1.94,1.15,3.5,2.73,4.64,4.68,1.13,1.96,1.71,4.13,1.71,6.46s-.58,4.5-1.71,6.45c-1.14,1.95-2.7,3.53-4.64,4.68-1.93,1.14-4.08,1.72-6.37,1.72ZM971.7,1306.06c-1.22-2.1-2.9-3.8-4.99-5.04-2.09-1.24-4.41-1.86-6.88-1.86s-4.8.62-6.89,1.86c-2.09,1.24-3.78,2.94-5.01,5.04-1.24,2.11-1.87,4.45-1.87,6.96s.63,4.85,1.87,6.95c1.23,2.11,2.92,3.8,5.01,5.04,2.09,1.24,4.41,1.86,6.89,1.86s4.79-.62,6.88-1.86c2.09-1.24,3.77-2.94,4.99-5.04,1.23-2.11,1.85-4.45,1.85-6.95s-.62-4.85-1.85-6.96ZM959.82,1325.87c-2.3,0-4.44-.58-6.38-1.72-1.94-1.15-3.51-2.73-4.66-4.69-1.15-1.95-1.73-4.12-1.73-6.44s.58-4.5,1.73-6.45c1.15-1.96,2.72-3.53,4.66-4.69,1.94-1.14,4.08-1.72,6.38-1.72s4.44.58,6.37,1.72c1.94,1.15,3.5,2.73,4.64,4.68,1.13,1.96,1.71,4.13,1.71,6.46s-.58,4.5-1.71,6.45c-1.14,1.95-2.7,3.53-4.64,4.68-1.93,1.14-4.08,1.72-6.37,1.72ZM971.7,1306.06c-1.22-2.1-2.9-3.8-4.99-5.04-2.09-1.24-4.41-1.86-6.88-1.86s-4.8.62-6.89,1.86c-2.09,1.24-3.78,2.94-5.01,5.04-1.24,2.11-1.87,4.45-1.87,6.96s.63,4.85,1.87,6.95c1.23,2.11,2.92,3.8,5.01,5.04,2.09,1.24,4.41,1.86,6.89,1.86s4.79-.62,6.88-1.86c2.09-1.24,3.77-2.94,4.99-5.04,1.23-2.11,1.85-4.45,1.85-6.95s-.62-4.85-1.85-6.96ZM959.82,1325.87c-2.3,0-4.44-.58-6.38-1.72-1.94-1.15-3.51-2.73-4.66-4.69-1.15-1.95-1.73-4.12-1.73-6.44s.58-4.5,1.73-6.45c1.15-1.96,2.72-3.53,4.66-4.69,1.94-1.14,4.08-1.72,6.38-1.72s4.44.58,6.37,1.72c1.94,1.15,3.5,2.73,4.64,4.68,1.13,1.96,1.71,4.13,1.71,6.46s-.58,4.5-1.71,6.45c-1.14,1.95-2.7,3.53-4.64,4.68-1.93,1.14-4.08,1.72-6.37,1.72ZM973.57,1304.99c-1.41-2.45-3.35-4.41-5.78-5.84-2.44-1.42-5.12-2.14-7.96-2.14s-5.53.72-7.96,2.14c-2.44,1.43-4.38,3.39-5.79,5.84-1.41,2.45-2.12,5.15-2.12,8.03s.71,5.57,2.12,8.02c1.41,2.45,3.36,4.41,5.79,5.84,2.43,1.42,5.11,2.14,7.96,2.14s5.52-.72,7.96-2.14c2.43-1.43,4.37-3.39,5.78-5.84,1.41-2.45,2.12-5.15,2.12-8.02s-.71-5.58-2.12-8.03ZM959.82,1328.02c-2.67,0-5.18-.67-7.46-2.01-2.28-1.33-4.1-3.17-5.42-5.47-1.32-2.29-1.99-4.82-1.99-7.52s.67-5.24,1.99-7.53c1.32-2.3,3.14-4.14,5.42-5.47,2.28-1.34,4.79-2.01,7.46-2.01s5.17.67,7.45,2.01c2.28,1.33,4.11,3.17,5.43,5.47,1.31,2.29,1.98,4.83,1.98,7.53s-.67,5.23-1.98,7.52c-1.33,2.3-3.15,4.14-5.43,5.47-2.28,1.34-4.79,2.01-7.45,2.01ZM973.55,1313.02c0-2.51-.62-4.85-1.85-6.96-1.22-2.1-2.9-3.8-4.99-5.04-2.09-1.24-4.41-1.86-6.88-1.86s-4.8.62-6.89,1.86c-2.09,1.24-3.78,2.94-5.01,5.04-1.24,2.11-1.87,4.45-1.87,6.96s.63,4.85,1.87,6.95c1.23,2.11,2.92,3.8,5.01,5.04,2.09,1.24,4.41,1.86,6.89,1.86s4.79-.62,6.88-1.86c2.09-1.24,3.77-2.94,4.99-5.04,1.23-2.11,1.85-4.45,1.85-6.95ZM959.82,1325.87c-2.3,0-4.44-.58-6.38-1.72-1.94-1.15-3.51-2.73-4.66-4.69-1.15-1.95-1.73-4.12-1.73-6.44s.58-4.5,1.73-6.45c1.15-1.96,2.72-3.53,4.66-4.69,1.94-1.14,4.08-1.72,6.38-1.72s4.44.58,6.37,1.72c1.94,1.15,3.5,2.73,4.64,4.68,1.13,1.96,1.71,4.13,1.71,6.46s-.58,4.5-1.71,6.45c-1.14,1.95-2.7,3.53-4.64,4.68-1.93,1.14-4.08,1.72-6.37,1.72ZM971.7,1306.06c-1.22-2.1-2.9-3.8-4.99-5.04-2.09-1.24-4.41-1.86-6.88-1.86s-4.8.62-6.89,1.86c-2.09,1.24-3.78,2.94-5.01,5.04-1.24,2.11-1.87,4.45-1.87,6.96s.63,4.85,1.87,6.95c1.23,2.11,2.92,3.8,5.01,5.04,2.09,1.24,4.41,1.86,6.89,1.86s4.79-.62,6.88-1.86c2.09-1.24,3.77-2.94,4.99-5.04,1.23-2.11,1.85-4.45,1.85-6.95s-.62-4.85-1.85-6.96ZM959.82,1325.87c-2.3,0-4.44-.58-6.38-1.72-1.94-1.15-3.51-2.73-4.66-4.69-1.15-1.95-1.73-4.12-1.73-6.44s.58-4.5,1.73-6.45c1.15-1.96,2.72-3.53,4.66-4.69,1.94-1.14,4.08-1.72,6.38-1.72s4.44.58,6.37,1.72c1.94,1.15,3.5,2.73,4.64,4.68,1.13,1.96,1.71,4.13,1.71,6.46s-.58,4.5-1.71,6.45c-1.14,1.95-2.7,3.53-4.64,4.68-1.93,1.14-4.08,1.72-6.37,1.72ZM971.7,1306.06c-1.22-2.1-2.9-3.8-4.99-5.04-2.09-1.24-4.41-1.86-6.88-1.86s-4.8.62-6.89,1.86c-2.09,1.24-3.78,2.94-5.01,5.04-1.24,2.11-1.87,4.45-1.87,6.96s.63,4.85,1.87,6.95c1.23,2.11,2.92,3.8,5.01,5.04,2.09,1.24,4.41,1.86,6.89,1.86s4.79-.62,6.88-1.86c2.09-1.24,3.77-2.94,4.99-5.04,1.23-2.11,1.85-4.45,1.85-6.95s-.62-4.85-1.85-6.96ZM959.82,1325.87c-2.3,0-4.44-.58-6.38-1.72-1.94-1.15-3.51-2.73-4.66-4.69-1.15-1.95-1.73-4.12-1.73-6.44s.58-4.5,1.73-6.45c1.15-1.96,2.72-3.53,4.66-4.69,1.94-1.14,4.08-1.72,6.38-1.72s4.44.58,6.37,1.72c1.94,1.15,3.5,2.73,4.64,4.68,1.13,1.96,1.71,4.13,1.71,6.46s-.58,4.5-1.71,6.45c-1.14,1.95-2.7,3.53-4.64,4.68-1.93,1.14-4.08,1.72-6.37,1.72ZM971.7,1306.06c-1.22-2.1-2.9-3.8-4.99-5.04-2.09-1.24-4.41-1.86-6.88-1.86s-4.8.62-6.89,1.86c-2.09,1.24-3.78,2.94-5.01,5.04-1.24,2.11-1.87,4.45-1.87,6.96s.63,4.85,1.87,6.95c1.23,2.11,2.92,3.8,5.01,5.04,2.09,1.24,4.41,1.86,6.89,1.86s4.79-.62,6.88-1.86c2.09-1.24,3.77-2.94,4.99-5.04,1.23-2.11,1.85-4.45,1.85-6.95s-.62-4.85-1.85-6.96ZM959.82,1325.87c-2.3,0-4.44-.58-6.38-1.72-1.94-1.15-3.51-2.73-4.66-4.69-1.15-1.95-1.73-4.12-1.73-6.44s.58-4.5,1.73-6.45c1.15-1.96,2.72-3.53,4.66-4.69,1.94-1.14,4.08-1.72,6.38-1.72s4.44.58,6.37,1.72c1.94,1.15,3.5,2.73,4.64,4.68,1.13,1.96,1.71,4.13,1.71,6.46s-.58,4.5-1.71,6.45c-1.14,1.95-2.7,3.53-4.64,4.68-1.93,1.14-4.08,1.72-6.37,1.72ZM971.7,1306.06c-1.22-2.1-2.9-3.8-4.99-5.04-2.09-1.24-4.41-1.86-6.88-1.86s-4.8.62-6.89,1.86c-2.09,1.24-3.78,2.94-5.01,5.04-1.24,2.11-1.87,4.45-1.87,6.96s.63,4.85,1.87,6.95c1.23,2.11,2.92,3.8,5.01,5.04,2.09,1.24,4.41,1.86,6.89,1.86s4.79-.62,6.88-1.86c2.09-1.24,3.77-2.94,4.99-5.04,1.23-2.11,1.85-4.45,1.85-6.95s-.62-4.85-1.85-6.96ZM959.82,1325.87c-2.3,0-4.44-.58-6.38-1.72-1.94-1.15-3.51-2.73-4.66-4.69-1.15-1.95-1.73-4.12-1.73-6.44s.58-4.5,1.73-6.45c1.15-1.96,2.72-3.53,4.66-4.69,1.94-1.14,4.08-1.72,6.38-1.72s4.44.58,6.37,1.72c1.94,1.15,3.5,2.73,4.64,4.68,1.13,1.96,1.71,4.13,1.71,6.46s-.58,4.5-1.71,6.45c-1.14,1.95-2.7,3.53-4.64,4.68-1.93,1.14-4.08,1.72-6.37,1.72Z"/>
        </g>
        <g>
          <polygon class="cls-1" points="998.08 1297.47 998.08 1328.2 1000.18 1328.2 1000.18 1304.14 1013.82 1323.39 1027.27 1304.19 1027.27 1328.2 1029.37 1328.2 1029.37 1297.47 1013.82 1319.7 998.08 1297.47"/>
          <path class="cls-1" d="M1013.82,1318.83l-16.24-22.94v32.81h3.1v-22.99l13.14,18.54,12.95-18.48v22.93h3.11v-32.83l-16.06,22.96ZM1028.88,1327.7h-1.11v-25.1l-13.95,19.92-14.14-19.95v25.13h-1.1v-28.67l15.24,21.53,15.06-21.51v28.65Z"/>
        </g>
        <g>
          <polygon class="cls-1" points="1106.63 1322.59 1085.61 1297.47 1085.61 1328.2 1087.71 1328.2 1087.71 1303.54 1108.73 1328.71 1108.73 1297.84 1106.63 1297.84 1106.63 1322.59"/>
          <path class="cls-1" d="M1106.13,1297.33v23.88l-21.02-25.13v32.62h3.1v-23.79l21.02,25.18v-32.76h-3.1ZM1108.22,1327.33l-21.02-25.18v25.55h-1.1v-28.86l21.02,25.13v-25.64h1.1v29Z"/>
        </g>
        <g>
          <path class="cls-1" d="M1160.53,1305.24c-1.37-2.38-3.23-4.27-5.6-5.65-2.37-1.39-4.94-2.08-7.71-2.08s-5.34.69-7.7,2.08c-2.37,1.38-4.24,3.27-5.61,5.65-1.37,2.38-2.05,4.97-2.05,7.78s.68,5.39,2.05,7.77c1.37,2.38,3.24,4.27,5.61,5.65,2.36,1.39,4.93,2.08,7.7,2.08s5.34-.69,7.71-2.08c2.37-1.38,4.23-3.27,5.6-5.65,1.37-2.38,2.06-4.97,2.06-7.77s-.69-5.4-2.06-7.78ZM1147.22,1326.37c-2.4,0-4.61-.6-6.63-1.79-2.02-1.2-3.64-2.82-4.83-4.86-1.2-2.04-1.8-4.28-1.8-6.7s.6-4.67,1.8-6.71c1.19-2.04,2.81-3.66,4.83-4.86,2.02-1.19,4.23-1.79,6.63-1.79s4.61.6,6.64,1.79c2.02,1.2,3.62,2.82,4.81,4.86,1.18,2.04,1.77,4.28,1.77,6.71s-.59,4.66-1.77,6.7c-1.19,2.04-2.79,3.66-4.81,4.86-2.03,1.19-4.24,1.79-6.64,1.79Z"/>
          <path class="cls-1" d="M1159.09,1306.06c-1.22-2.1-2.9-3.8-4.99-5.04-2.09-1.24-4.41-1.86-6.89-1.86s-4.79.62-6.89,1.86c-2.08,1.24-3.77,2.94-5.01,5.04-1.23,2.11-1.86,4.45-1.86,6.96s.63,4.84,1.86,6.95c1.24,2.11,2.93,3.8,5.01,5.04,2.1,1.24,4.42,1.86,6.89,1.86s4.8-.62,6.89-1.86c2.09-1.24,3.77-2.94,4.99-5.04,1.22-2.11,1.84-4.45,1.84-6.95s-.62-4.85-1.84-6.96ZM1147.22,1325.87c-2.29,0-4.44-.58-6.38-1.72-1.94-1.15-3.5-2.73-4.65-4.69-1.15-1.95-1.73-4.12-1.73-6.44s.58-4.5,1.73-6.45c1.15-1.96,2.71-3.54,4.65-4.69,1.94-1.14,4.09-1.72,6.38-1.72s4.44.58,6.38,1.72c1.94,1.15,3.5,2.73,4.63,4.68,1.14,1.96,1.71,4.13,1.71,6.46s-.57,4.49-1.71,6.45c-1.13,1.95-2.69,3.53-4.63,4.68-1.94,1.14-4.08,1.72-6.38,1.72ZM1159.09,1306.06c-1.22-2.1-2.9-3.8-4.99-5.04-2.09-1.24-4.41-1.86-6.89-1.86s-4.79.62-6.89,1.86c-2.08,1.24-3.77,2.94-5.01,5.04-1.23,2.11-1.86,4.45-1.86,6.96s.63,4.84,1.86,6.95c1.24,2.11,2.93,3.8,5.01,5.04,2.1,1.24,4.42,1.86,6.89,1.86s4.8-.62,6.89-1.86c2.09-1.24,3.77-2.94,4.99-5.04,1.22-2.11,1.84-4.45,1.84-6.95s-.62-4.85-1.84-6.96ZM1147.22,1325.87c-2.29,0-4.44-.58-6.38-1.72-1.94-1.15-3.5-2.73-4.65-4.69-1.15-1.95-1.73-4.12-1.73-6.44s.58-4.5,1.73-6.45c1.15-1.96,2.71-3.54,4.65-4.69,1.94-1.14,4.09-1.72,6.38-1.72s4.44.58,6.38,1.72c1.94,1.15,3.5,2.73,4.63,4.68,1.14,1.96,1.71,4.13,1.71,6.46s-.57,4.49-1.71,6.45c-1.13,1.95-2.69,3.53-4.63,4.68-1.94,1.14-4.08,1.72-6.38,1.72ZM1159.09,1306.06c-1.22-2.1-2.9-3.8-4.99-5.04-2.09-1.24-4.41-1.86-6.89-1.86s-4.79.62-6.89,1.86c-2.08,1.24-3.77,2.94-5.01,5.04-1.23,2.11-1.86,4.45-1.86,6.96s.63,4.84,1.86,6.95c1.24,2.11,2.93,3.8,5.01,5.04,2.1,1.24,4.42,1.86,6.89,1.86s4.8-.62,6.89-1.86c2.09-1.24,3.77-2.94,4.99-5.04,1.22-2.11,1.84-4.45,1.84-6.95s-.62-4.85-1.84-6.96ZM1147.22,1325.87c-2.29,0-4.44-.58-6.38-1.72-1.94-1.15-3.5-2.73-4.65-4.69-1.15-1.95-1.73-4.12-1.73-6.44s.58-4.5,1.73-6.45c1.15-1.96,2.71-3.54,4.65-4.69,1.94-1.14,4.09-1.72,6.38-1.72s4.44.58,6.38,1.72c1.94,1.15,3.5,2.73,4.63,4.68,1.14,1.96,1.71,4.13,1.71,6.46s-.57,4.49-1.71,6.45c-1.13,1.95-2.69,3.53-4.63,4.68-1.94,1.14-4.08,1.72-6.38,1.72ZM1159.09,1306.06c-1.22-2.1-2.9-3.8-4.99-5.04-2.09-1.24-4.41-1.86-6.89-1.86s-4.79.62-6.89,1.86c-2.08,1.24-3.77,2.94-5.01,5.04-1.23,2.11-1.86,4.45-1.86,6.96s.63,4.84,1.86,6.95c1.24,2.11,2.93,3.8,5.01,5.04,2.1,1.24,4.42,1.86,6.89,1.86s4.8-.62,6.89-1.86c2.09-1.24,3.77-2.94,4.99-5.04,1.22-2.11,1.84-4.45,1.84-6.95s-.62-4.85-1.84-6.96ZM1147.22,1325.87c-2.29,0-4.44-.58-6.38-1.72-1.94-1.15-3.5-2.73-4.65-4.69-1.15-1.95-1.73-4.12-1.73-6.44s.58-4.5,1.73-6.45c1.15-1.96,2.71-3.54,4.65-4.69,1.94-1.14,4.09-1.72,6.38-1.72s4.44.58,6.38,1.72c1.94,1.15,3.5,2.73,4.63,4.68,1.14,1.96,1.71,4.13,1.71,6.46s-.57,4.49-1.71,6.45c-1.13,1.95-2.69,3.53-4.63,4.68-1.94,1.14-4.08,1.72-6.38,1.72ZM1160.97,1304.99c-1.41-2.45-3.36-4.41-5.79-5.84-2.43-1.42-5.11-2.14-7.96-2.14s-5.52.72-7.96,2.14c-2.43,1.43-4.38,3.39-5.78,5.84-1.41,2.45-2.12,5.15-2.12,8.03s.71,5.58,2.12,8.02c1.4,2.45,3.35,4.41,5.78,5.84,2.43,1.42,5.11,2.14,7.96,2.14s5.53-.72,7.96-2.14c2.43-1.43,4.38-3.39,5.79-5.84,1.41-2.45,2.12-5.15,2.12-8.02s-.71-5.58-2.12-8.03ZM1147.22,1328.02c-2.67,0-5.18-.67-7.45-2.01-2.28-1.33-4.11-3.17-5.43-5.47-1.32-2.29-1.98-4.82-1.98-7.52s.66-5.24,1.98-7.53c1.32-2.3,3.15-4.14,5.43-5.47,2.28-1.34,4.78-2.01,7.45-2.01s5.18.67,7.46,2.01c2.28,1.33,4.1,3.17,5.42,5.47,1.32,2.29,1.99,4.83,1.99,7.53s-.67,5.23-1.99,7.52c-1.32,2.3-3.14,4.14-5.42,5.47-2.28,1.34-4.79,2.01-7.46,2.01ZM1160.93,1313.02c0-2.51-.62-4.85-1.84-6.96-1.22-2.1-2.9-3.8-4.99-5.04-2.09-1.24-4.41-1.86-6.89-1.86s-4.79.62-6.89,1.86c-2.08,1.24-3.77,2.94-5.01,5.04-1.23,2.11-1.86,4.45-1.86,6.96s.63,4.84,1.86,6.95c1.24,2.11,2.93,3.8,5.01,5.04,2.1,1.24,4.42,1.86,6.89,1.86s4.8-.62,6.89-1.86c2.09-1.24,3.77-2.94,4.99-5.04,1.22-2.11,1.84-4.45,1.84-6.95ZM1147.22,1325.87c-2.29,0-4.44-.58-6.38-1.72-1.94-1.15-3.5-2.73-4.65-4.69-1.15-1.95-1.73-4.12-1.73-6.44s.58-4.5,1.73-6.45c1.15-1.96,2.71-3.54,4.65-4.69,1.94-1.14,4.09-1.72,6.38-1.72s4.44.58,6.38,1.72c1.94,1.15,3.5,2.73,4.63,4.68,1.14,1.96,1.71,4.13,1.71,6.46s-.57,4.49-1.71,6.45c-1.13,1.95-2.69,3.53-4.63,4.68-1.94,1.14-4.08,1.72-6.38,1.72ZM1159.09,1306.06c-1.22-2.1-2.9-3.8-4.99-5.04-2.09-1.24-4.41-1.86-6.89-1.86s-4.79.62-6.89,1.86c-2.08,1.24-3.77,2.94-5.01,5.04-1.23,2.11-1.86,4.45-1.86,6.96s.63,4.84,1.86,6.95c1.24,2.11,2.93,3.8,5.01,5.04,2.1,1.24,4.42,1.86,6.89,1.86s4.8-.62,6.89-1.86c2.09-1.24,3.77-2.94,4.99-5.04,1.22-2.11,1.84-4.45,1.84-6.95s-.62-4.85-1.84-6.96ZM1147.22,1325.87c-2.29,0-4.44-.58-6.38-1.72-1.94-1.15-3.5-2.73-4.65-4.69-1.15-1.95-1.73-4.12-1.73-6.44s.58-4.5,1.73-6.45c1.15-1.96,2.71-3.54,4.65-4.69,1.94-1.14,4.09-1.72,6.38-1.72s4.44.58,6.38,1.72c1.94,1.15,3.5,2.73,4.63,4.68,1.14,1.96,1.71,4.13,1.71,6.46s-.57,4.49-1.71,6.45c-1.13,1.95-2.69,3.53-4.63,4.68-1.94,1.14-4.08,1.72-6.38,1.72ZM1159.09,1306.06c-1.22-2.1-2.9-3.8-4.99-5.04-2.09-1.24-4.41-1.86-6.89-1.86s-4.79.62-6.89,1.86c-2.08,1.24-3.77,2.94-5.01,5.04-1.23,2.11-1.86,4.45-1.86,6.96s.63,4.84,1.86,6.95c1.24,2.11,2.93,3.8,5.01,5.04,2.1,1.24,4.42,1.86,6.89,1.86s4.8-.62,6.89-1.86c2.09-1.24,3.77-2.94,4.99-5.04,1.22-2.11,1.84-4.45,1.84-6.95s-.62-4.85-1.84-6.96ZM1147.22,1325.87c-2.29,0-4.44-.58-6.38-1.72-1.94-1.15-3.5-2.73-4.65-4.69-1.15-1.95-1.73-4.12-1.73-6.44s.58-4.5,1.73-6.45c1.15-1.96,2.71-3.54,4.65-4.69,1.94-1.14,4.09-1.72,6.38-1.72s4.44.58,6.38,1.72c1.94,1.15,3.5,2.73,4.63,4.68,1.14,1.96,1.71,4.13,1.71,6.46s-.57,4.49-1.71,6.45c-1.13,1.95-2.69,3.53-4.63,4.68-1.94,1.14-4.08,1.72-6.38,1.72ZM1159.09,1306.06c-1.22-2.1-2.9-3.8-4.99-5.04-2.09-1.24-4.41-1.86-6.89-1.86s-4.79.62-6.89,1.86c-2.08,1.24-3.77,2.94-5.01,5.04-1.23,2.11-1.86,4.45-1.86,6.96s.63,4.84,1.86,6.95c1.24,2.11,2.93,3.8,5.01,5.04,2.1,1.24,4.42,1.86,6.89,1.86s4.8-.62,6.89-1.86c2.09-1.24,3.77-2.94,4.99-5.04,1.22-2.11,1.84-4.45,1.84-6.95s-.62-4.85-1.84-6.96ZM1147.22,1325.87c-2.29,0-4.44-.58-6.38-1.72-1.94-1.15-3.5-2.73-4.65-4.69-1.15-1.95-1.73-4.12-1.73-6.44s.58-4.5,1.73-6.45c1.15-1.96,2.71-3.54,4.65-4.69,1.94-1.14,4.09-1.72,6.38-1.72s4.44.58,6.38,1.72c1.94,1.15,3.5,2.73,4.63,4.68,1.14,1.96,1.71,4.13,1.71,6.46s-.57,4.49-1.71,6.45c-1.13,1.95-2.69,3.53-4.63,4.68-1.94,1.14-4.08,1.72-6.38,1.72ZM1159.09,1306.06c-1.22-2.1-2.9-3.8-4.99-5.04-2.09-1.24-4.41-1.86-6.89-1.86s-4.79.62-6.89,1.86c-2.08,1.24-3.77,2.94-5.01,5.04-1.23,2.11-1.86,4.45-1.86,6.96s.63,4.84,1.86,6.95c1.24,2.11,2.93,3.8,5.01,5.04,2.1,1.24,4.42,1.86,6.89,1.86s4.8-.62,6.89-1.86c2.09-1.24,3.77-2.94,4.99-5.04,1.22-2.11,1.84-4.45,1.84-6.95s-.62-4.85-1.84-6.96ZM1147.22,1325.87c-2.29,0-4.44-.58-6.38-1.72-1.94-1.15-3.5-2.73-4.65-4.69-1.15-1.95-1.73-4.12-1.73-6.44s.58-4.5,1.73-6.45c1.15-1.96,2.71-3.54,4.65-4.69,1.94-1.14,4.09-1.72,6.38-1.72s4.44.58,6.38,1.72c1.94,1.15,3.5,2.73,4.63,4.68,1.14,1.96,1.71,4.13,1.71,6.46s-.57,4.49-1.71,6.45c-1.13,1.95-2.69,3.53-4.63,4.68-1.94,1.14-4.08,1.72-6.38,1.72Z"/>
        </g>
        <g>
          <polygon class="cls-1" points="1181.83 1299.99 1193.88 1299.99 1193.88 1328.2 1196.03 1328.2 1196.03 1299.99 1208.03 1299.99 1208.03 1297.84 1181.83 1297.84 1181.83 1299.99"/>
          <path class="cls-1" d="M1181.32,1297.33v3.15h12.06v28.22h3.14v-28.22h12.01v-3.15h-27.21ZM1207.53,1299.48h-12.01v28.22h-1.14v-28.22h-12.06v-1.15h25.21v1.15Z"/>
        </g>
        <g>
          <polygon class="cls-1" points="1251.01 1311.94 1233.07 1311.94 1233.07 1297.84 1230.92 1297.84 1230.92 1311.94 1230.92 1328.2 1233.07 1328.2 1233.07 1314.09 1251.01 1314.09 1251.01 1328.2 1253.11 1328.2 1253.11 1312.97 1253.11 1297.84 1251.01 1297.84 1251.01 1311.94"/>
          <path class="cls-1" d="M1250.51,1297.33v14.11h-16.94v-14.11h-3.14v31.37h3.14v-14.11h16.94v14.11h3.1v-31.37h-3.1ZM1252.61,1327.7h-1.1v-14.11h-18.94v14.11h-1.14v-29.37h1.14v14.11h18.94v-14.11h1.1v29.37Z"/>
        </g>
        <g>
          <rect class="cls-1" x="1278.75" y="1297.84" width="2.1" height="30.36"/>
          <path class="cls-1" d="M1278.26,1297.33v31.37h3.1v-31.37h-3.1ZM1280.36,1327.7h-1.1v-29.37h1.1v29.37Z"/>
        </g>
        <g>
          <polygon class="cls-1" points="1327.51 1322.59 1306.5 1297.47 1306.5 1328.2 1308.6 1328.2 1308.6 1303.54 1329.62 1328.71 1329.62 1297.84 1327.51 1297.84 1327.51 1322.59"/>
          <path class="cls-1" d="M1327.01,1297.33v23.88l-21.02-25.13v32.62h3.1v-23.79l21.02,25.18v-32.76h-3.1ZM1329.11,1327.33l-21.02-25.18v25.55h-1.1v-28.86l21.02,25.13v-25.64h1.1v29Z"/>
        </g>
        <g>
          <path class="cls-1" d="M1366.84,1315.21h10v10.88h-8.78c-2.37,0-4.56-.6-6.59-1.8-2.02-1.2-3.63-2.81-4.81-4.83-1.18-2.02-1.78-4.23-1.78-6.63s.59-4.6,1.78-6.61c1.18-2.01,2.79-3.6,4.81-4.79,2.02-1.18,4.22-1.77,6.59-1.77,1.81,0,3.55.37,5.23,1.1,1.68.73,3.14,1.77,4.39,3.11l1.54-1.45c-1.43-1.56-3.12-2.77-5.07-3.64-1.95-.87-3.98-1.31-6.1-1.31-2.77,0-5.32.69-7.66,2.08-2.34,1.39-4.19,3.25-5.56,5.61-1.37,2.35-2.06,4.91-2.06,7.68s.68,5.38,2.06,7.73c1.37,2.35,3.22,4.21,5.56,5.58,2.34,1.37,4.89,2.06,7.66,2.06h10.98v-15.09h-12.19v2.1Z"/>
          <path class="cls-1" d="M1366.34,1315.71h9.99v9.88h-8.28c-2.26,0-4.39-.58-6.33-1.72-1.94-1.15-3.5-2.72-4.63-4.66s-1.71-4.08-1.71-6.38.57-4.44,1.71-6.36c1.13-1.92,2.69-3.47,4.63-4.61,1.94-1.13,4.07-1.7,6.33-1.7,1.73,0,3.42.35,5.04,1.05,1.6.7,3.03,1.71,4.22,2.99l.34.37,2.27-2.13-.34-.37c-1.47-1.6-3.23-2.86-5.23-3.76-2-.89-4.12-1.35-6.3-1.35-2.85,0-5.51.72-7.91,2.15-2.4,1.42-4.33,3.37-5.74,5.78-1.41,2.42-2.12,5.09-2.12,7.94s.71,5.56,2.12,7.98c1.41,2.42,3.34,4.35,5.74,5.76,2.4,1.41,5.06,2.13,7.91,2.13h11.48v-16.09h-13.19v3.1ZM1367.34,1313.61h11.19v14.09h-10.48c-2.67,0-5.16-.67-7.4-1.99-2.25-1.32-4.06-3.14-5.38-5.4-1.32-2.26-1.99-4.78-1.99-7.48s.67-5.17,1.99-7.43c1.32-2.27,3.13-4.09,5.38-5.43,2.24-1.33,4.74-2.01,7.4-2.01,2.04,0,4.02.43,5.89,1.27,1.73.77,3.26,1.83,4.57,3.16l-.82.77c-1.21-1.21-2.62-2.18-4.21-2.86-1.73-.76-3.56-1.14-5.43-1.14-2.44,0-4.74.62-6.84,1.84-2.09,1.22-3.76,2.89-4.98,4.97-1.23,2.07-1.85,4.38-1.85,6.86s.62,4.79,1.84,6.88c1.23,2.09,2.9,3.78,4.99,5.02,2.09,1.24,4.4,1.86,6.84,1.86h9.28v-11.88h-9.99v-1.1Z"/>
        </g>
      </g>
      <g>
        <polygon class="cls-1" points="424.13 1218.46 442.22 1218.46 442.22 1265.78 456.15 1265.78 456.15 1218.46 474.33 1218.46 474.33 1206.31 424.13 1206.31 424.13 1218.46"/>
        <path class="cls-1" d="M537.41,1238.09c2.35-3.23,3.53-7.11,3.53-11.64,0-3.96-.88-7.48-2.63-10.53-1.76-3.06-4.25-5.42-7.48-7.09-3.23-1.67-7-2.51-11.3-2.51h-28.97v59.47h13.93v-19.63h8.07l15.12,19.63h16.57l-16.82-20.81c4.3-1.36,7.63-3.65,9.98-6.88ZM524.8,1232.78c-1.59,1.44-3.88,2.17-6.88,2.17h-13.51v-16.74h13.51c2.94,0,5.22.74,6.84,2.21,1.61,1.47,2.42,3.54,2.42,6.2s-.79,4.72-2.38,6.16Z"/>
        <path class="cls-1" d="M599.65,1240.13c0,4.53-1.16,8.1-3.48,10.7-2.32,2.61-5.49,3.91-9.52,3.91s-7.35-1.3-9.64-3.91c-2.29-2.6-3.44-6.17-3.44-10.7v-33.81h-13.93v33.81c0,8.5,2.36,15.11,7.09,19.84,4.73,4.73,11.37,7.09,19.92,7.09s15.18-2.36,19.88-7.09c4.7-4.73,7.05-11.34,7.05-19.84v-33.81h-13.93v33.81Z"/>
        <polygon class="cls-1" points="647.65 1241.23 677.81 1241.23 677.81 1230.02 647.65 1230.02 647.65 1217.95 679.5 1217.95 679.5 1206.31 634.14 1206.31 634.14 1265.78 680.44 1265.78 680.44 1254.06 647.65 1254.06 647.65 1241.23"/>
        <polygon class="cls-1" points="758.51 1226.53 749.93 1249.64 741.52 1226.53 733.53 1206.31 718.16 1206.31 742.63 1265.78 757.32 1265.78 781.79 1206.31 766.41 1206.31 758.51 1226.53"/>
        <rect class="cls-1" x="796.32" y="1206.31" width="13.93" height="59.47"/>
        <path class="cls-1" d="M872.86,1235.58c-3.97-3.09-9.97-5.08-18.01-5.99-4.19-.51-7.18-1.27-8.96-2.29-1.78-1.02-2.68-2.46-2.68-4.33s1.03-3.45,3.1-4.59c2.07-1.13,4.83-1.7,8.28-1.7,5.61,0,10.73,1.61,15.38,4.84l6.54-9.77c-3-2.15-6.47-3.82-10.41-5.01-3.94-1.19-7.97-1.78-12.11-1.78-4.81,0-9.06.76-12.74,2.29-3.68,1.53-6.54,3.68-8.58,6.46-2.04,2.78-3.06,5.98-3.06,9.6,0,5.38,1.88,9.52,5.65,12.4,3.77,2.89,9.7,4.79,17.8,5.69,4.19.45,7.25,1.22,9.18,2.29,1.92,1.08,2.89,2.58,2.89,4.5,0,2.04-1.03,3.65-3.1,4.84-2.07,1.19-4.86,1.78-8.37,1.78-7.02,0-13.17-2.07-18.44-6.2l-7.22,10.11c3.28,2.66,7.18,4.73,11.68,6.2,4.5,1.47,9.19,2.21,14.06,2.21s9.29-.78,13.08-2.34c3.79-1.56,6.74-3.77,8.84-6.63,2.09-2.86,3.14-6.16,3.14-9.9,0-5.38-1.98-9.61-5.95-12.7Z"/>
        <rect class="cls-1" x="896.23" y="1206.31" width="13.93" height="59.47"/>
        <path class="cls-1" d="M977.15,1208.73c-4.84-2.58-10.46-3.87-16.86-3.87s-12.02,1.29-16.86,3.87c-4.84,2.58-8.58,6.22-11.21,10.92-2.63,4.7-3.95,10.17-3.95,16.4s1.32,11.7,3.95,16.4c2.63,4.7,6.37,8.34,11.21,10.92,4.84,2.58,10.46,3.87,16.86,3.87s12.02-1.29,16.86-3.87c4.84-2.58,8.58-6.22,11.21-10.92,2.63-4.7,3.95-10.17,3.95-16.4s-1.32-11.69-3.95-16.4c-2.63-4.7-6.37-8.34-11.21-10.92ZM976.13,1245.9c-1.5,2.83-3.63,5.03-6.37,6.58-2.75,1.56-5.9,2.34-9.47,2.34s-6.71-.78-9.43-2.34c-2.72-1.56-4.83-3.75-6.33-6.58-1.5-2.83-2.25-6.12-2.25-9.85s.75-7.02,2.25-9.86c1.5-2.83,3.61-5.03,6.33-6.58,2.72-1.56,5.86-2.34,9.43-2.34s6.72.78,9.47,2.34c2.75,1.56,4.87,3.75,6.37,6.58,1.5,2.83,2.25,6.12,2.25,9.86s-.75,7.02-2.25,9.85Z"/>
        <polygon class="cls-1" points="1049.57 1227.38 1049.74 1243.27 1022.81 1206.31 1010.32 1206.31 1010.32 1265.78 1024.17 1265.78 1024.17 1245.05 1024 1229 1050.93 1265.78 1063.42 1265.78 1063.42 1206.31 1049.57 1206.31 1049.57 1227.38"/>
        <path class="cls-1" d="M1153.68,1208.9c-3.43-1.73-7.43-2.59-12.02-2.59h-28.46v59.47h13.93v-16.82h14.53c4.59,0,8.59-.86,12.02-2.59,3.43-1.73,6.07-4.21,7.94-7.43,1.87-3.23,2.8-6.99,2.8-11.3s-.93-8.07-2.8-11.3c-1.87-3.23-4.52-5.71-7.94-7.43ZM1147.99,1234.35c-1.73,1.64-4.06,2.46-7.01,2.46h-13.93v-18.18h13.93c2.94,0,5.28.82,7.01,2.46,1.73,1.64,2.59,3.85,2.59,6.63s-.86,4.98-2.59,6.63Z"/>
        <path class="cls-1" d="M1227.85,1238.09c2.35-3.23,3.53-7.11,3.53-11.64,0-3.96-.88-7.48-2.63-10.53-1.76-3.06-4.25-5.42-7.48-7.09-3.23-1.67-7-2.51-11.3-2.51h-28.97v59.47h13.93v-19.63h8.07l15.12,19.63h16.57l-16.82-20.81c4.3-1.36,7.63-3.65,9.98-6.88ZM1215.24,1232.78c-1.59,1.44-3.88,2.17-6.88,2.17h-13.51v-16.74h13.51c2.94,0,5.22.74,6.84,2.21,1.61,1.47,2.42,3.54,2.42,6.2s-.79,4.72-2.38,6.16Z"/>
        <path class="cls-1" d="M1296.16,1208.73c-4.84-2.58-10.46-3.87-16.86-3.87s-12.02,1.29-16.86,3.87c-4.84,2.58-8.58,6.22-11.21,10.92-2.63,4.7-3.95,10.17-3.95,16.4s1.32,11.7,3.95,16.4c2.63,4.7,6.37,8.34,11.21,10.92,4.84,2.58,10.46,3.87,16.86,3.87s12.02-1.29,16.86-3.87c4.84-2.58,8.58-6.22,11.21-10.92,2.63-4.7,3.95-10.17,3.95-16.4s-1.32-11.69-3.95-16.4c-2.63-4.7-6.37-8.34-11.21-10.92ZM1295.14,1245.9c-1.5,2.83-3.63,5.03-6.37,6.58-2.75,1.56-5.9,2.34-9.47,2.34s-6.71-.78-9.43-2.34c-2.72-1.56-4.83-3.75-6.33-6.58-1.5-2.83-2.25-6.12-2.25-9.85s.75-7.02,2.25-9.86c1.5-2.83,3.61-5.03,6.33-6.58,2.72-1.56,5.86-2.34,9.43-2.34s6.72.78,9.47,2.34c2.75,1.56,4.87,3.75,6.37,6.58,1.5,2.83,2.25,6.12,2.25,9.86s-.75,7.02-2.25,9.85Z"/>
        <path class="cls-1" d="M1346.24,1218.38h17.33v22c0,4.53-1.12,8.03-3.36,10.49-2.24,2.46-5.34,3.7-9.3,3.7s-7.14-1.2-9.35-3.61c-2.21-2.41-3.34-5.85-3.4-10.32h-13.59c.06,8.38,2.39,14.87,7.01,19.46,4.62,4.59,11.06,6.88,19.33,6.88,5.32,0,10-1.08,14.02-3.23,4.02-2.15,7.12-5.21,9.3-9.18,2.18-3.96,3.27-8.64,3.27-14.02v-34.24h-31.26v12.06Z"/>
        <polygon class="cls-1" points="1411.48 1241.23 1441.64 1241.23 1441.64 1230.02 1411.48 1230.02 1411.48 1217.95 1443.34 1217.95 1443.34 1206.31 1397.98 1206.31 1397.98 1265.78 1444.28 1265.78 1444.28 1254.06 1411.48 1254.06 1411.48 1241.23"/>
        <path class="cls-1" d="M1499.33,1253.21c-2.61,1.02-5.32,1.53-8.16,1.53-3.57,0-6.73-.78-9.47-2.34-2.75-1.56-4.87-3.75-6.37-6.58-1.5-2.83-2.25-6.09-2.25-9.77s.75-6.94,2.25-9.77c1.5-2.83,3.62-5.03,6.37-6.58,2.75-1.56,5.9-2.34,9.47-2.34,5.32,0,9.88,1.81,13.68,5.44l8.58-8.58c-6.29-6.17-13.82-9.26-22.6-9.26-6.17,0-11.67,1.29-16.48,3.87-4.81,2.58-8.57,6.23-11.26,10.96-2.69,4.73-4.04,10.15-4.04,16.27s1.32,11.53,3.95,16.23c2.63,4.7,6.37,8.35,11.21,10.96s10.46,3.91,16.86,3.91c9.06,0,16.79-3.09,23.19-9.26l-8.16-9.09c-1.93,1.93-4.19,3.4-6.8,4.42Z"/>
        <polygon class="cls-1" points="1525.67 1206.31 1525.67 1218.46 1543.76 1218.46 1543.76 1265.78 1557.69 1265.78 1557.69 1218.46 1575.87 1218.46 1575.87 1206.31 1525.67 1206.31"/>
      </g>
    </g>
  </g>
</svg>