<?xml version="1.0" encoding="UTF-8"?>
<svg id="Layer_1" data-name="Layer 1" xmlns="http://www.w3.org/2000/svg" viewBox="0 0 2000 2000">
  <polygon points="999.41 1122.73 1000.59 1119.7 1000.59 1125.51 999.41 1122.73"/>
  <g>
    <path d="M1151.52,621.64v15.51h7.5c42.73,0,72.13,42.95,56.63,82.79l-155.39,399.76-1.18,3.03-12.58,32.37-197.33-463.61c-10.95-25.75,7.93-54.34,35.93-54.34h19.08v-15.51h-266.91v15.51h13.68c28.95,0,55.13,17.3,66.47,43.95l264.43,621.31h35.32l257.31-612.71c13.37-31.83,44.52-52.54,79.03-52.54h9.21v-15.51h-211.21Z"/>
    <path d="M752.67,510.15c.08-.07.17-.13.27-.19,1.03-.72,2.06-1.43,3.07-2.12,5.54-3.72,10.95-6.99,16.2-9.89,1.08-.59,2.16-1.16,3.23-1.73,34.31-18.07,61.06-19.61,65.41-19.76h.35c3.42-.32,6.82-.52,10.21-.61.99-.02,2-.03,3-.03h84.24v363.91l1.08,2.53,60.27,141.62,52.35,123.01.07.15V475.83h92.79c1.11,0,2.24.02,3.37.03,3.5.07,7.02.29,10.56.61,21.98,2.09,44.69,9.05,65.41,19.76,1.08.57,2.16,1.14,3.23,1.73,5.58,3.02,11,6.32,16.2,9.89,1.04.69,2.06,1.4,3.07,2.12.1.05.19.12.27.19,25.77,18.01,53.7,45.66,78.73,88.11l-10.83-122.44-2.81-31.83h-624.83l-2.81,31.83-10.81,122.44c25.03-42.45,52.96-70.1,78.73-88.11Z"/>
  </g>
  <g>
    <g>
      <g>
        <path d="M394.13,1530.83c-1.7-2.22-3.76-3.87-6.16-4.92-.74-.32-1.6-.62-2.61-.94l.71-.47c1.43-.94,2.61-2.27,3.59-4.01.98-1.74,1.45-3.66,1.45-5.74,0-1.68-.35-3.3-1.06-4.88-.71-1.57-1.72-2.96-3.02-4.16-2.85-2.68-6.64-4.03-11.42-4.03h-14.64l-.07,51.15h18.8c2.36,0,4.6-.39,6.72-1.14,2.14-.76,3.98-1.82,5.56-3.18,1.52-1.36,2.68-2.93,3.5-4.68.81-1.77,1.21-3.55,1.21-5.39,0-2.83-.86-5.37-2.56-7.6ZM381.82,1522.93c-.94.35-1.89.62-2.83.77-.94.17-2.12.24-3.54.24h-10.93v-18.65h11.08c2.53,0,4.68.45,6.5,1.35,1.8.89,3.17,2.06,4.08,3.5.93,1.43,1.38,2.96,1.38,4.6,0,2.04-.61,3.77-1.85,5.19-1.23,1.41-2.53,2.41-3.89,3ZM364.52,1527.56h12.58c3.82,0,7.01.56,9.52,1.65,1.79.79,3.32,2.01,4.6,3.67,1.3,1.65,1.94,3.49,1.94,5.54,0,1.84-.56,3.57-1.65,5.22-1.11,1.67-2.68,3.02-4.73,4.06-2.04,1.04-4.4,1.57-7.07,1.57h-15.18v-21.71Z"/>
        <path d="M386.91,1509.69c-1.01-1.57-2.49-2.85-4.43-3.81-1.92-.94-4.23-1.43-6.87-1.43h-11.93v20.33h11.77c1.45,0,2.7-.08,3.67-.24.99-.17,2-.45,3.03-.84,1.47-.62,2.88-1.72,4.19-3.22,1.36-1.57,2.06-3.5,2.06-5.74,0-1.79-.5-3.49-1.5-5.05ZM375.45,1523.1h-10.09v-16.96h10.24c2.38,0,4.45.42,6.11,1.26,1.67.81,2.93,1.89,3.76,3.18.82,1.31,1.25,2.71,1.25,4.16,0,1.85-.54,3.37-1.63,4.63-1.14,1.31-2.36,2.24-3.57,2.76-.89.34-1.79.59-2.66.74-.89.15-2.04.22-3.4.22ZM391.89,1532.36c-1.36-1.75-3.03-3.08-4.93-3.91-2.61-1.15-5.93-1.74-9.85-1.74h-13.42v23.4h16.02c2.8,0,5.31-.56,7.46-1.67,2.17-1.09,3.86-2.56,5.04-4.33,1.2-1.79,1.8-3.71,1.8-5.69,0-2.22-.71-4.28-2.11-6.06ZM379.7,1548.43h-14.33v-20.03h11.74c3.69,0,6.79.54,9.18,1.58,1.65.72,3.08,1.87,4.28,3.4,1.18,1.52,1.75,3.17,1.75,5.04,0,1.65-.5,3.25-1.52,4.77s-2.49,2.8-4.4,3.77c-1.92.98-4.18,1.47-6.7,1.47ZM391.89,1532.36c-1.36-1.75-3.03-3.08-4.93-3.91-2.61-1.15-5.93-1.74-9.85-1.74h-13.42v23.4h16.02c2.8,0,5.31-.56,7.46-1.67,2.17-1.09,3.86-2.56,5.04-4.33,1.2-1.79,1.8-3.71,1.8-5.69,0-2.22-.71-4.28-2.11-6.06ZM379.7,1548.43h-14.33v-20.03h11.74c3.69,0,6.79.54,9.18,1.58,1.65.72,3.08,1.87,4.28,3.4,1.18,1.52,1.75,3.17,1.75,5.04,0,1.65-.5,3.25-1.52,4.77s-2.49,2.8-4.4,3.77c-1.92.98-4.18,1.47-6.7,1.47ZM386.91,1509.69c-1.01-1.57-2.49-2.85-4.43-3.81-1.92-.94-4.23-1.43-6.87-1.43h-11.93v20.33h11.77c1.45,0,2.7-.08,3.67-.24.99-.17,2-.45,3.03-.84,1.47-.62,2.88-1.72,4.19-3.22,1.36-1.57,2.06-3.5,2.06-5.74,0-1.79-.5-3.49-1.5-5.05ZM375.45,1523.1h-10.09v-16.96h10.24c2.38,0,4.45.42,6.11,1.26,1.67.81,2.93,1.89,3.76,3.18.82,1.31,1.25,2.71,1.25,4.16,0,1.85-.54,3.37-1.63,4.63-1.14,1.31-2.36,2.24-3.57,2.76-.89.34-1.79.59-2.66.74-.89.15-2.04.22-3.4.22ZM386.91,1509.69c-1.01-1.57-2.49-2.85-4.43-3.81-1.92-.94-4.23-1.43-6.87-1.43h-11.93v20.33h11.77c1.45,0,2.7-.08,3.67-.24.99-.17,2-.45,3.03-.84,1.47-.62,2.88-1.72,4.19-3.22,1.36-1.57,2.06-3.5,2.06-5.74,0-1.79-.5-3.49-1.5-5.05ZM375.45,1523.1h-10.09v-16.96h10.24c2.38,0,4.45.42,6.11,1.26,1.67.81,2.93,1.89,3.76,3.18.82,1.31,1.25,2.71,1.25,4.16,0,1.85-.54,3.37-1.63,4.63-1.14,1.31-2.36,2.24-3.57,2.76-.89.34-1.79.59-2.66.74-.89.15-2.04.22-3.4.22ZM391.89,1532.36c-1.36-1.75-3.03-3.08-4.93-3.91-2.61-1.15-5.93-1.74-9.85-1.74h-13.42v23.4h16.02c2.8,0,5.31-.56,7.46-1.67,2.17-1.09,3.86-2.56,5.04-4.33,1.2-1.79,1.8-3.71,1.8-5.69,0-2.22-.71-4.28-2.11-6.06ZM379.7,1548.43h-14.33v-20.03h11.74c3.69,0,6.79.54,9.18,1.58,1.65.72,3.08,1.87,4.28,3.4,1.18,1.52,1.75,3.17,1.75,5.04,0,1.65-.5,3.25-1.52,4.77s-2.49,2.8-4.4,3.77c-1.92.98-4.18,1.47-6.7,1.47ZM391.89,1532.36c-1.36-1.75-3.03-3.08-4.93-3.91-2.61-1.15-5.93-1.74-9.85-1.74h-13.42v23.4h16.02c2.8,0,5.31-.56,7.46-1.67,2.17-1.09,3.86-2.56,5.04-4.33,1.2-1.79,1.8-3.71,1.8-5.69,0-2.22-.71-4.28-2.11-6.06ZM379.7,1548.43h-14.33v-20.03h11.74c3.69,0,6.79.54,9.18,1.58,1.65.72,3.08,1.87,4.28,3.4,1.18,1.52,1.75,3.17,1.75,5.04,0,1.65-.5,3.25-1.52,4.77s-2.49,2.8-4.4,3.77c-1.92.98-4.18,1.47-6.7,1.47ZM379.12,1524.54c.99-.17,2-.45,3.03-.84,1.47-.62,2.88-1.72,4.19-3.22,1.36-1.57,2.06-3.5,2.06-5.74,0-1.79-.5-3.49-1.5-5.05-1.01-1.57-2.49-2.85-4.43-3.81-1.92-.94-4.23-1.43-6.87-1.43h-11.93v20.33h11.77c1.45,0,2.7-.08,3.67-.24ZM365.36,1506.13h10.24c2.38,0,4.45.42,6.11,1.26,1.67.81,2.93,1.89,3.76,3.18.82,1.31,1.25,2.71,1.25,4.16,0,1.85-.54,3.37-1.63,4.63-1.14,1.31-2.36,2.24-3.57,2.76-.89.34-1.79.59-2.66.74-.89.15-2.04.22-3.4.22h-10.09v-16.96ZM394.81,1530.32c-1.79-2.34-3.98-4.08-6.5-5.19h-.02c-.34-.13-.69-.29-1.08-.42,1.23-.98,2.29-2.26,3.18-3.82,1.03-1.85,1.55-3.92,1.55-6.15,0-1.79-.37-3.55-1.13-5.22-.76-1.67-1.84-3.17-3.22-4.45-2.98-2.81-7.02-4.24-11.99-4.24h-15.46l-.08,52.84h19.64c2.44,0,4.8-.4,7.01-1.2,2.22-.79,4.18-1.92,5.83-3.35,1.6-1.43,2.85-3.1,3.71-4.95.86-1.87,1.3-3.79,1.3-5.74,0-3.02-.91-5.74-2.73-8.1ZM379.7,1551.98h-17.96l.07-49.47h13.8c4.53,0,8.17,1.28,10.85,3.79,1.21,1.13,2.17,2.44,2.83,3.91.66,1.45.98,2.98.98,4.53,0,1.94-.45,3.74-1.35,5.32-.89,1.62-2.01,2.86-3.3,3.72l-2.17,1.45,1.67.54c.96.3,1.82.61,2.53.91,2.26.99,4.23,2.56,5.85,4.65,1.57,2.07,2.37,4.46,2.37,7.09,0,1.7-.39,3.4-1.14,5.04-.76,1.65-1.87,3.13-3.28,4.4-1.48,1.28-3.27,2.31-5.27,3.03-2.02.72-4.19,1.09-6.45,1.09ZM394,1538.42c0-2.22-.71-4.28-2.11-6.06-1.36-1.75-3.03-3.08-4.93-3.91-2.61-1.15-5.93-1.74-9.85-1.74h-13.42v23.4h16.02c2.8,0,5.31-.56,7.46-1.67,2.17-1.09,3.86-2.56,5.04-4.33,1.2-1.79,1.8-3.71,1.8-5.69ZM379.7,1548.43h-14.33v-20.03h11.74c3.69,0,6.79.54,9.18,1.58,1.65.72,3.08,1.87,4.28,3.4,1.18,1.52,1.75,3.17,1.75,5.04,0,1.65-.5,3.25-1.52,4.77s-2.49,2.8-4.4,3.77c-1.92.98-4.18,1.47-6.7,1.47ZM379.12,1524.54c.99-.17,2-.45,3.03-.84,1.47-.62,2.88-1.72,4.19-3.22,1.36-1.57,2.06-3.5,2.06-5.74,0-1.79-.5-3.49-1.5-5.05-1.01-1.57-2.49-2.85-4.43-3.81-1.92-.94-4.23-1.43-6.87-1.43h-11.93v20.33h11.77c1.45,0,2.7-.08,3.67-.24ZM365.36,1506.13h10.24c2.38,0,4.45.42,6.11,1.26,1.67.81,2.93,1.89,3.76,3.18.82,1.31,1.25,2.71,1.25,4.16,0,1.85-.54,3.37-1.63,4.63-1.14,1.31-2.36,2.24-3.57,2.76-.89.34-1.79.59-2.66.74-.89.15-2.04.22-3.4.22h-10.09v-16.96ZM386.91,1509.69c-1.01-1.57-2.49-2.85-4.43-3.81-1.92-.94-4.23-1.43-6.87-1.43h-11.93v20.33h11.77c1.45,0,2.7-.08,3.67-.24.99-.17,2-.45,3.03-.84,1.47-.62,2.88-1.72,4.19-3.22,1.36-1.57,2.06-3.5,2.06-5.74,0-1.79-.5-3.49-1.5-5.05ZM375.45,1523.1h-10.09v-16.96h10.24c2.38,0,4.45.42,6.11,1.26,1.67.81,2.93,1.89,3.76,3.18.82,1.31,1.25,2.71,1.25,4.16,0,1.85-.54,3.37-1.63,4.63-1.14,1.31-2.36,2.24-3.57,2.76-.89.34-1.79.59-2.66.74-.89.15-2.04.22-3.4.22ZM391.89,1532.36c-1.36-1.75-3.03-3.08-4.93-3.91-2.61-1.15-5.93-1.74-9.85-1.74h-13.42v23.4h16.02c2.8,0,5.31-.56,7.46-1.67,2.17-1.09,3.86-2.56,5.04-4.33,1.2-1.79,1.8-3.71,1.8-5.69,0-2.22-.71-4.28-2.11-6.06ZM379.7,1548.43h-14.33v-20.03h11.74c3.69,0,6.79.54,9.18,1.58,1.65.72,3.08,1.87,4.28,3.4,1.18,1.52,1.75,3.17,1.75,5.04,0,1.65-.5,3.25-1.52,4.77s-2.49,2.8-4.4,3.77c-1.92.98-4.18,1.47-6.7,1.47ZM391.89,1532.36c-1.36-1.75-3.03-3.08-4.93-3.91-2.61-1.15-5.93-1.74-9.85-1.74h-13.42v23.4h16.02c2.8,0,5.31-.56,7.46-1.67,2.17-1.09,3.86-2.56,5.04-4.33,1.2-1.79,1.8-3.71,1.8-5.69,0-2.22-.71-4.28-2.11-6.06ZM379.7,1548.43h-14.33v-20.03h11.74c3.69,0,6.79.54,9.18,1.58,1.65.72,3.08,1.87,4.28,3.4,1.18,1.52,1.75,3.17,1.75,5.04,0,1.65-.5,3.25-1.52,4.77s-2.49,2.8-4.4,3.77c-1.92.98-4.18,1.47-6.7,1.47ZM386.91,1509.69c-1.01-1.57-2.49-2.85-4.43-3.81-1.92-.94-4.23-1.43-6.87-1.43h-11.93v20.33h11.77c1.45,0,2.7-.08,3.67-.24.99-.17,2-.45,3.03-.84,1.47-.62,2.88-1.72,4.19-3.22,1.36-1.57,2.06-3.5,2.06-5.74,0-1.79-.5-3.49-1.5-5.05ZM375.45,1523.1h-10.09v-16.96h10.24c2.38,0,4.45.42,6.11,1.26,1.67.81,2.93,1.89,3.76,3.18.82,1.31,1.25,2.71,1.25,4.16,0,1.85-.54,3.37-1.63,4.63-1.14,1.31-2.36,2.24-3.57,2.76-.89.34-1.79.59-2.66.74-.89.15-2.04.22-3.4.22ZM386.91,1509.69c-1.01-1.57-2.49-2.85-4.43-3.81-1.92-.94-4.23-1.43-6.87-1.43h-11.93v20.33h11.77c1.45,0,2.7-.08,3.67-.24.99-.17,2-.45,3.03-.84,1.47-.62,2.88-1.72,4.19-3.22,1.36-1.57,2.06-3.5,2.06-5.74,0-1.79-.5-3.49-1.5-5.05ZM375.45,1523.1h-10.09v-16.96h10.24c2.38,0,4.45.42,6.11,1.26,1.67.81,2.93,1.89,3.76,3.18.82,1.31,1.25,2.71,1.25,4.16,0,1.85-.54,3.37-1.63,4.63-1.14,1.31-2.36,2.24-3.57,2.76-.89.34-1.79.59-2.66.74-.89.15-2.04.22-3.4.22ZM391.89,1532.36c-1.36-1.75-3.03-3.08-4.93-3.91-2.61-1.15-5.93-1.74-9.85-1.74h-13.42v23.4h16.02c2.8,0,5.31-.56,7.46-1.67,2.17-1.09,3.86-2.56,5.04-4.33,1.2-1.79,1.8-3.71,1.8-5.69,0-2.22-.71-4.28-2.11-6.06ZM379.7,1548.43h-14.33v-20.03h11.74c3.69,0,6.79.54,9.18,1.58,1.65.72,3.08,1.87,4.28,3.4,1.18,1.52,1.75,3.17,1.75,5.04,0,1.65-.5,3.25-1.52,4.77s-2.49,2.8-4.4,3.77c-1.92.98-4.18,1.47-6.7,1.47ZM391.89,1532.36c-1.36-1.75-3.03-3.08-4.93-3.91-2.61-1.15-5.93-1.74-9.85-1.74h-13.42v23.4h16.02c2.8,0,5.31-.56,7.46-1.67,2.17-1.09,3.86-2.56,5.04-4.33,1.2-1.79,1.8-3.71,1.8-5.69,0-2.22-.71-4.28-2.11-6.06ZM379.7,1548.43h-14.33v-20.03h11.74c3.69,0,6.79.54,9.18,1.58,1.65.72,3.08,1.87,4.28,3.4,1.18,1.52,1.75,3.17,1.75,5.04,0,1.65-.5,3.25-1.52,4.77s-2.49,2.8-4.4,3.77c-1.92.98-4.18,1.47-6.7,1.47ZM386.91,1509.69c-1.01-1.57-2.49-2.85-4.43-3.81-1.92-.94-4.23-1.43-6.87-1.43h-11.93v20.33h11.77c1.45,0,2.7-.08,3.67-.24.99-.17,2-.45,3.03-.84,1.47-.62,2.88-1.72,4.19-3.22,1.36-1.57,2.06-3.5,2.06-5.74,0-1.79-.5-3.49-1.5-5.05ZM375.45,1523.1h-10.09v-16.96h10.24c2.38,0,4.45.42,6.11,1.26,1.67.81,2.93,1.89,3.76,3.18.82,1.31,1.25,2.71,1.25,4.16,0,1.85-.54,3.37-1.63,4.63-1.14,1.31-2.36,2.24-3.57,2.76-.89.34-1.79.59-2.66.74-.89.15-2.04.22-3.4.22Z"/>
      </g>
      <g>
        <path d="M470.26,1533.54c0,2.2-.41,4.3-1.22,6.29-.81,1.99-1.95,3.73-3.42,5.19-1.52,1.52-3.25,2.69-5.19,3.5-1.94.81-3.99,1.22-6.14,1.22s-4.12-.41-6.06-1.22c-1.94-.81-3.67-1.98-5.19-3.5-1.47-1.47-2.61-3.2-3.42-5.19-.81-1.99-1.22-4.09-1.22-6.29v-31.86h-3.54v31.86c0,2.68.48,5.22,1.46,7.63.97,2.41,2.37,4.51,4.21,6.29,1.84,1.89,3.95,3.34,6.33,4.37,2.39,1.02,4.86,1.53,7.43,1.53s5.19-.51,7.55-1.53c2.36-1.02,4.46-2.48,6.29-4.37,1.84-1.78,3.24-3.88,4.21-6.29.97-2.41,1.46-4.96,1.46-7.63v-31.86h-3.54v31.86Z"/>
        <path d="M469.41,1500.83v32.71c0,2.09-.39,4.09-1.14,5.98-.77,1.89-1.87,3.54-3.25,4.92-1.43,1.43-3.08,2.54-4.92,3.32-3.6,1.52-7.85,1.55-11.54,0-1.84-.77-3.49-1.89-4.92-3.32s-2.48-3.03-3.25-4.92c-.76-1.89-1.14-3.89-1.14-5.98v-32.71h-5.24v32.71c0,2.78.52,5.46,1.52,7.95,1.01,2.51,2.49,4.73,4.4,6.57,1.9,1.95,4.13,3.49,6.6,4.55s5.09,1.6,7.76,1.6,5.44-.54,7.88-1.6c2.46-1.06,4.67-2.59,6.55-4.53,1.92-1.85,3.4-4.08,4.41-6.59.99-2.51,1.52-5.17,1.52-7.95v-32.71h-5.24ZM472.96,1533.54c0,2.56-.47,5.02-1.4,7.33-.93,2.29-2.27,4.31-4.04,6.01-1.75,1.8-3.77,3.22-6.01,4.18-4.4,1.9-9.69,1.99-14.33,0-2.26-.98-4.31-2.38-6.06-4.19-1.75-1.68-3.1-3.71-4.03-6-.93-2.31-1.4-4.77-1.4-7.33v-31.03h1.87v31.03c0,2.31.42,4.53,1.28,6.62.84,2.09,2.06,3.92,3.6,5.47,1.58,1.58,3.42,2.83,5.46,3.67,4.11,1.73,8.83,1.68,12.85,0,2.02-.84,3.87-2.09,5.46-3.67,1.55-1.55,2.76-3.39,3.6-5.47.86-2.09,1.28-4.31,1.28-6.62v-31.03h1.87v31.03Z"/>
      </g>
      <g>
        <rect x="516.2" y="1501.68" width="3.54" height="51.14"/>
        <path d="M515.36,1500.83v52.84h5.22v-52.84h-5.22ZM518.9,1551.98h-1.85v-49.47h1.85v49.47Z"/>
      </g>
      <g>
        <polygon points="566.4 1501.68 562.86 1501.68 562.86 1552.82 595.11 1552.82 595.11 1549.28 566.4 1549.28 566.4 1501.68"/>
        <path d="M567.24,1548.43v-47.6h-5.22v52.84h33.94v-5.24h-28.72ZM594.27,1551.98h-30.57v-49.47h1.85v47.6h28.72v1.87Z"/>
      </g>
      <g>
        <polygon points="625.64 1505.3 645.94 1505.3 645.94 1552.82 649.56 1552.82 649.56 1505.3 669.78 1505.3 669.78 1501.68 625.64 1501.68 625.64 1505.3"/>
        <path d="M624.79,1500.83v5.31h20.3v47.53h5.31v-47.53h20.23v-5.31h-45.83ZM668.94,1504.45h-20.23v47.53h-1.94v-47.53h-20.3v-1.94h42.46v1.94Z"/>
      </g>
      <g>
        <polygon points="761.44 1552.82 764.98 1552.82 764.98 1529.14 788.11 1529.14 788.11 1525.44 764.98 1525.44 764.98 1505.3 794.56 1505.3 794.56 1501.68 761.44 1501.68 761.44 1552.82"/>
        <path d="M795.4,1506.13v-5.31h-34.82v52.84h5.24v-23.68h23.13v-5.39h-23.13v-18.46h29.58ZM787.27,1528.3h-23.13v23.68h-1.87v-49.47h31.45v1.94h-29.58v21.83h23.13v2.02Z"/>
      </g>
      <g>
        <path d="M856.12,1530.12c1.55-.18,3.13-.64,4.76-1.38,2.36-1,4.41-2.64,6.14-4.92,1.73-2.28,2.6-4.86,2.6-7.75,0-1.84-.41-3.62-1.22-5.35-.81-1.73-1.98-3.28-3.5-4.64-1.57-1.42-3.41-2.5-5.51-3.27-2.1-.76-4.35-1.14-6.77-1.14h-17.86v51.14h3.54v-47.6h14.32c2.67,0,5.04.53,7.08,1.57,2.05,1.05,3.62,2.4,4.72,4.05,1.1,1.65,1.65,3.4,1.65,5.23,0,2.05-.66,3.92-1.97,5.63-1.31,1.71-2.86,2.98-4.64,3.82-2.41,1-5.56,1.5-9.44,1.5h-6.29l21.24,25.81h4.72l-18.49-22.42c1.73,0,3.37-.09,4.92-.28Z"/>
        <path d="M852.96,1531.2c1.13-.03,2.22-.12,3.27-.24,1.62-.2,3.3-.69,4.99-1.45,2.48-1.04,4.67-2.78,6.49-5.17,1.84-2.43,2.76-5.21,2.76-8.27,0-1.95-.44-3.87-1.3-5.71-.86-1.82-2.11-3.47-3.71-4.9-1.65-1.48-3.59-2.65-5.78-3.44-2.19-.79-4.56-1.2-7.06-1.2h-18.7v52.84h5.22v-47.6h13.48c2.53,0,4.78.49,6.7,1.48,1.9.98,3.39,2.24,4.4,3.76s1.52,3.12,1.52,4.77c0,1.87-.59,3.55-1.8,5.12-1.21,1.58-2.68,2.78-4.29,3.55-2.29.94-5.36,1.43-9.11,1.43h-8.08l22.64,27.49h6.91l-18.53-22.47ZM850.03,1527.86c3.97,0,7.26-.54,9.8-1.58,1.89-.89,3.55-2.26,4.95-4.06,1.42-1.85,2.14-3.92,2.14-6.15,0-1.99-.61-3.91-1.8-5.69-1.18-1.77-2.86-3.22-5.04-4.33-2.16-1.11-4.66-1.67-7.46-1.67h-15.16v47.6h-1.85v-49.47h17.01c2.31,0,4.48.37,6.49,1.09,1.99.72,3.74,1.77,5.22,3.1,1.43,1.28,2.54,2.76,3.3,4.38.76,1.62,1.14,3.28,1.14,4.99,0,2.7-.82,5.12-2.43,7.24-1.63,2.16-3.59,3.72-5.81,4.67-1.53.69-3.07,1.13-4.51,1.3-1.5.19-3.12.27-4.82.27h-1.79l18.49,22.44h-2.54l-19.86-24.12h4.51Z"/>
      </g>
      <g>
        <path d="M954.75,1514.15c-2.31-4.01-5.46-7.19-9.45-9.52-3.97-2.34-8.3-3.5-12.97-3.5s-8.99,1.16-12.99,3.5c-3.99,2.32-7.14,5.51-9.45,9.52-2.31,4.01-3.45,8.37-3.45,13.11s1.14,9.08,3.45,13.09c2.31,4.01,5.46,7.19,9.45,9.52,3.99,2.34,8.3,3.5,12.99,3.5s9-1.16,12.97-3.5c3.99-2.33,7.14-5.51,9.45-9.52,2.31-4.01,3.45-8.37,3.45-13.09s-1.14-9.1-3.45-13.11ZM932.33,1549.74c-4.04,0-7.76-1.01-11.18-3.02-3.4-2.02-6.11-4.75-8.13-8.19-2.02-3.44-3.03-7.21-3.03-11.28s1.01-7.87,3.03-11.3c2.02-3.44,4.73-6.16,8.13-8.19,3.42-2,7.14-3.02,11.18-3.02s7.75,1.01,11.17,3.02c3.4,2.02,6.11,4.75,8.1,8.19,1.99,3.44,3,7.21,3,11.3s-1.01,7.85-3,11.28c-1.99,3.44-4.7,6.17-8.1,8.19-3.42,2-7.14,3.02-11.17,3.02Z"/>
        <path d="M952.32,1515.53c-2.06-3.54-4.88-6.4-8.4-8.49-3.52-2.09-7.43-3.13-11.59-3.13s-8.08,1.04-11.61,3.13c-3.52,2.09-6.37,4.95-8.44,8.49-2.09,3.55-3.15,7.5-3.15,11.72s1.06,8.17,3.15,11.71c2.07,3.55,4.92,6.4,8.44,8.49,3.52,2.09,7.43,3.13,11.61,3.13s8.07-1.04,11.59-3.13c3.52-2.09,6.35-4.95,8.4-8.49,2.07-3.55,3.12-7.5,3.12-11.71s-1.04-8.17-3.12-11.72ZM932.33,1548.9c-3.87,0-7.48-.98-10.75-2.9-3.27-1.94-5.91-4.6-7.85-7.9-1.94-3.28-2.91-6.94-2.91-10.85s.98-7.58,2.91-10.86c1.94-3.3,4.58-5.95,7.85-7.9,3.27-1.92,6.87-2.9,10.75-2.9s7.48.98,10.73,2.9c3.27,1.94,5.9,4.6,7.82,7.88,1.9,3.3,2.88,6.96,2.88,10.88s-.98,7.58-2.88,10.86c-1.92,3.28-4.55,5.95-7.82,7.88-3.25,1.92-6.87,2.9-10.73,2.9ZM952.32,1515.53c-2.06-3.54-4.88-6.4-8.4-8.49-3.52-2.09-7.43-3.13-11.59-3.13s-8.08,1.04-11.61,3.13c-3.52,2.09-6.37,4.95-8.44,8.49-2.09,3.55-3.15,7.5-3.15,11.72s1.06,8.17,3.15,11.71c2.07,3.55,4.92,6.4,8.44,8.49,3.52,2.09,7.43,3.13,11.61,3.13s8.07-1.04,11.59-3.13c3.52-2.09,6.35-4.95,8.4-8.49,2.07-3.55,3.12-7.5,3.12-11.71s-1.04-8.17-3.12-11.72ZM932.33,1548.9c-3.87,0-7.48-.98-10.75-2.9-3.27-1.94-5.91-4.6-7.85-7.9-1.94-3.28-2.91-6.94-2.91-10.85s.98-7.58,2.91-10.86c1.94-3.3,4.58-5.95,7.85-7.9,3.27-1.92,6.87-2.9,10.75-2.9s7.48.98,10.73,2.9c3.27,1.94,5.9,4.6,7.82,7.88,1.9,3.3,2.88,6.96,2.88,10.88s-.98,7.58-2.88,10.86c-1.92,3.28-4.55,5.95-7.82,7.88-3.25,1.92-6.87,2.9-10.73,2.9ZM952.32,1515.53c-2.06-3.54-4.88-6.4-8.4-8.49-3.52-2.09-7.43-3.13-11.59-3.13s-8.08,1.04-11.61,3.13c-3.52,2.09-6.37,4.95-8.44,8.49-2.09,3.55-3.15,7.5-3.15,11.72s1.06,8.17,3.15,11.71c2.07,3.55,4.92,6.4,8.44,8.49,3.52,2.09,7.43,3.13,11.61,3.13s8.07-1.04,11.59-3.13c3.52-2.09,6.35-4.95,8.4-8.49,2.07-3.55,3.12-7.5,3.12-11.71s-1.04-8.17-3.12-11.72ZM932.33,1548.9c-3.87,0-7.48-.98-10.75-2.9-3.27-1.94-5.91-4.6-7.85-7.9-1.94-3.28-2.91-6.94-2.91-10.85s.98-7.58,2.91-10.86c1.94-3.3,4.58-5.95,7.85-7.9,3.27-1.92,6.87-2.9,10.75-2.9s7.48.98,10.73,2.9c3.27,1.94,5.9,4.6,7.82,7.88,1.9,3.3,2.88,6.96,2.88,10.88s-.98,7.58-2.88,10.86c-1.92,3.28-4.55,5.95-7.82,7.88-3.25,1.92-6.87,2.9-10.73,2.9ZM952.32,1515.53c-2.06-3.54-4.88-6.4-8.4-8.49-3.52-2.09-7.43-3.13-11.59-3.13s-8.08,1.04-11.61,3.13c-3.52,2.09-6.37,4.95-8.44,8.49-2.09,3.55-3.15,7.5-3.15,11.72s1.06,8.17,3.15,11.71c2.07,3.55,4.92,6.4,8.44,8.49,3.52,2.09,7.43,3.13,11.61,3.13s8.07-1.04,11.59-3.13c3.52-2.09,6.35-4.95,8.4-8.49,2.07-3.55,3.12-7.5,3.12-11.71s-1.04-8.17-3.12-11.72ZM932.33,1548.9c-3.87,0-7.48-.98-10.75-2.9-3.27-1.94-5.91-4.6-7.85-7.9-1.94-3.28-2.91-6.94-2.91-10.85s.98-7.58,2.91-10.86c1.94-3.3,4.58-5.95,7.85-7.9,3.27-1.92,6.87-2.9,10.75-2.9s7.48.98,10.73,2.9c3.27,1.94,5.9,4.6,7.82,7.88,1.9,3.3,2.88,6.96,2.88,10.88s-.98,7.58-2.88,10.86c-1.92,3.28-4.55,5.95-7.82,7.88-3.25,1.92-6.87,2.9-10.73,2.9ZM955.47,1513.73c-2.38-4.13-5.64-7.43-9.74-9.84-4.11-2.39-8.62-3.6-13.41-3.6s-9.31,1.21-13.41,3.6c-4.11,2.41-7.38,5.71-9.75,9.84-2.37,4.13-3.57,8.67-3.57,13.53s1.2,9.38,3.57,13.51c2.38,4.13,5.66,7.43,9.75,9.84,4.09,2.39,8.61,3.6,13.41,3.6s9.3-1.21,13.41-3.6c4.09-2.41,7.36-5.71,9.74-9.84,2.37-4.13,3.57-8.68,3.57-13.51s-1.2-9.4-3.57-13.53ZM932.33,1552.52c-4.5,0-8.72-1.13-12.57-3.39-3.84-2.24-6.91-5.34-9.13-9.21-2.22-3.86-3.35-8.12-3.35-12.67s1.13-8.83,3.35-12.68c2.22-3.87,5.29-6.97,9.13-9.21,3.84-2.26,8.07-3.39,12.57-3.39s8.71,1.13,12.55,3.39c3.84,2.24,6.92,5.34,9.15,9.21,2.21,3.86,3.33,8.14,3.33,12.68s-1.13,8.81-3.33,12.67c-2.24,3.87-5.31,6.97-9.15,9.21-3.84,2.26-8.07,3.39-12.55,3.39ZM955.44,1527.26c0-4.23-1.04-8.17-3.12-11.72-2.06-3.54-4.88-6.4-8.4-8.49-3.52-2.09-7.43-3.13-11.59-3.13s-8.08,1.04-11.61,3.13c-3.52,2.09-6.37,4.95-8.44,8.49-2.09,3.55-3.15,7.5-3.15,11.72s1.06,8.17,3.15,11.71c2.07,3.55,4.92,6.4,8.44,8.49,3.52,2.09,7.43,3.13,11.61,3.13s8.07-1.04,11.59-3.13c3.52-2.09,6.35-4.95,8.4-8.49,2.07-3.55,3.12-7.5,3.12-11.71ZM932.33,1548.9c-3.87,0-7.48-.98-10.75-2.9-3.27-1.94-5.91-4.6-7.85-7.9-1.94-3.28-2.91-6.94-2.91-10.85s.98-7.58,2.91-10.86c1.94-3.3,4.58-5.95,7.85-7.9,3.27-1.92,6.87-2.9,10.75-2.9s7.48.98,10.73,2.9c3.27,1.94,5.9,4.6,7.82,7.88,1.9,3.3,2.88,6.96,2.88,10.88s-.98,7.58-2.88,10.86c-1.92,3.28-4.55,5.95-7.82,7.88-3.25,1.92-6.87,2.9-10.73,2.9ZM952.32,1515.53c-2.06-3.54-4.88-6.4-8.4-8.49-3.52-2.09-7.43-3.13-11.59-3.13s-8.08,1.04-11.61,3.13c-3.52,2.09-6.37,4.95-8.44,8.49-2.09,3.55-3.15,7.5-3.15,11.72s1.06,8.17,3.15,11.71c2.07,3.55,4.92,6.4,8.44,8.49,3.52,2.09,7.43,3.13,11.61,3.13s8.07-1.04,11.59-3.13c3.52-2.09,6.35-4.95,8.4-8.49,2.07-3.55,3.12-7.5,3.12-11.71s-1.04-8.17-3.12-11.72ZM932.33,1548.9c-3.87,0-7.48-.98-10.75-2.9-3.27-1.94-5.91-4.6-7.85-7.9-1.94-3.28-2.91-6.94-2.91-10.85s.98-7.58,2.91-10.86c1.94-3.3,4.58-5.95,7.85-7.9,3.27-1.92,6.87-2.9,10.75-2.9s7.48.98,10.73,2.9c3.27,1.94,5.9,4.6,7.82,7.88,1.9,3.3,2.88,6.96,2.88,10.88s-.98,7.58-2.88,10.86c-1.92,3.28-4.55,5.95-7.82,7.88-3.25,1.92-6.87,2.9-10.73,2.9ZM952.32,1515.53c-2.06-3.54-4.88-6.4-8.4-8.49-3.52-2.09-7.43-3.13-11.59-3.13s-8.08,1.04-11.61,3.13c-3.52,2.09-6.37,4.95-8.44,8.49-2.09,3.55-3.15,7.5-3.15,11.72s1.06,8.17,3.15,11.71c2.07,3.55,4.92,6.4,8.44,8.49,3.52,2.09,7.43,3.13,11.61,3.13s8.07-1.04,11.59-3.13c3.52-2.09,6.35-4.95,8.4-8.49,2.07-3.55,3.12-7.5,3.12-11.71s-1.04-8.17-3.12-11.72ZM932.33,1548.9c-3.87,0-7.48-.98-10.75-2.9-3.27-1.94-5.91-4.6-7.85-7.9-1.94-3.28-2.91-6.94-2.91-10.85s.98-7.58,2.91-10.86c1.94-3.3,4.58-5.95,7.85-7.9,3.27-1.92,6.87-2.9,10.75-2.9s7.48.98,10.73,2.9c3.27,1.94,5.9,4.6,7.82,7.88,1.9,3.3,2.88,6.96,2.88,10.88s-.98,7.58-2.88,10.86c-1.92,3.28-4.55,5.95-7.82,7.88-3.25,1.92-6.87,2.9-10.73,2.9ZM952.32,1515.53c-2.06-3.54-4.88-6.4-8.4-8.49-3.52-2.09-7.43-3.13-11.59-3.13s-8.08,1.04-11.61,3.13c-3.52,2.09-6.37,4.95-8.44,8.49-2.09,3.55-3.15,7.5-3.15,11.72s1.06,8.17,3.15,11.71c2.07,3.55,4.92,6.4,8.44,8.49,3.52,2.09,7.43,3.13,11.61,3.13s8.07-1.04,11.59-3.13c3.52-2.09,6.35-4.95,8.4-8.49,2.07-3.55,3.12-7.5,3.12-11.71s-1.04-8.17-3.12-11.72ZM932.33,1548.9c-3.87,0-7.48-.98-10.75-2.9-3.27-1.94-5.91-4.6-7.85-7.9-1.94-3.28-2.91-6.94-2.91-10.85s.98-7.58,2.91-10.86c1.94-3.3,4.58-5.95,7.85-7.9,3.27-1.92,6.87-2.9,10.75-2.9s7.48.98,10.73,2.9c3.27,1.94,5.9,4.6,7.82,7.88,1.9,3.3,2.88,6.96,2.88,10.88s-.98,7.58-2.88,10.86c-1.92,3.28-4.55,5.95-7.82,7.88-3.25,1.92-6.87,2.9-10.73,2.9ZM952.32,1515.53c-2.06-3.54-4.88-6.4-8.4-8.49-3.52-2.09-7.43-3.13-11.59-3.13s-8.08,1.04-11.61,3.13c-3.52,2.09-6.37,4.95-8.44,8.49-2.09,3.55-3.15,7.5-3.15,11.72s1.06,8.17,3.15,11.71c2.07,3.55,4.92,6.4,8.44,8.49,3.52,2.09,7.43,3.13,11.61,3.13s8.07-1.04,11.59-3.13c3.52-2.09,6.35-4.95,8.4-8.49,2.07-3.55,3.12-7.5,3.12-11.71s-1.04-8.17-3.12-11.72ZM932.33,1548.9c-3.87,0-7.48-.98-10.75-2.9-3.27-1.94-5.91-4.6-7.85-7.9-1.94-3.28-2.91-6.94-2.91-10.85s.98-7.58,2.91-10.86c1.94-3.3,4.58-5.95,7.85-7.9,3.27-1.92,6.87-2.9,10.75-2.9s7.48.98,10.73,2.9c3.27,1.94,5.9,4.6,7.82,7.88,1.9,3.3,2.88,6.96,2.88,10.88s-.98,7.58-2.88,10.86c-1.92,3.28-4.55,5.95-7.82,7.88-3.25,1.92-6.87,2.9-10.73,2.9Z"/>
      </g>
      <g>
        <polygon points="996.76 1501.05 996.76 1552.82 1000.3 1552.82 1000.3 1512.3 1023.27 1544.71 1045.93 1512.38 1045.93 1552.82 1049.47 1552.82 1049.47 1501.05 1023.27 1538.5 996.76 1501.05"/>
        <path d="M1023.27,1537.04l-27.35-38.64v55.27h5.22v-38.72l22.13,31.23,21.81-31.13v38.62h5.24v-55.3l-27.05,38.67ZM1048.64,1551.98h-1.87v-42.28l-23.5,33.55-23.82-33.6v42.33h-1.85v-48.29l25.67,36.26,25.37-36.23v48.26Z"/>
      </g>
      <g>
        <polygon points="1179.6 1543.38 1144.2 1501.05 1144.2 1552.82 1147.74 1552.82 1147.74 1511.28 1183.14 1553.68 1183.14 1501.68 1179.6 1501.68 1179.6 1543.38"/>
        <path d="M1178.76,1500.83v40.22l-35.41-42.33v54.94h5.22v-40.07l35.41,42.41v-55.18h-5.22ZM1182.29,1551.36l-35.41-42.41v43.04h-1.85v-48.61l35.41,42.33v-43.19h1.85v48.85Z"/>
      </g>
      <g>
        <path d="M1270.39,1514.15c-2.31-4.01-5.44-7.19-9.43-9.52-3.99-2.34-8.32-3.5-12.99-3.5s-8.99,1.16-12.97,3.5c-3.99,2.32-7.14,5.51-9.45,9.52-2.31,4.01-3.45,8.37-3.45,13.11s1.14,9.08,3.45,13.09c2.31,4.01,5.46,7.19,9.45,9.52,3.98,2.34,8.3,3.5,12.97,3.5s8.99-1.16,12.99-3.5c3.99-2.33,7.12-5.51,9.43-9.52,2.31-4.01,3.47-8.37,3.47-13.09s-1.16-9.1-3.47-13.11ZM1247.97,1549.74c-4.04,0-7.76-1.01-11.17-3.02-3.4-2.02-6.13-4.75-8.14-8.19-2.02-3.44-3.03-7.21-3.03-11.28s1.01-7.87,3.03-11.3c2-3.44,4.73-6.16,8.14-8.19,3.4-2,7.12-3.02,11.17-3.02s7.76,1.01,11.18,3.02c3.4,2.02,6.1,4.75,8.1,8.19,1.99,3.44,2.98,7.21,2.98,11.3s-.99,7.85-2.98,11.28c-2.01,3.44-4.7,6.17-8.1,8.19-3.42,2-7.14,3.02-11.18,3.02Z"/>
        <path d="M1267.98,1515.53c-2.05-3.54-4.88-6.4-8.4-8.49-3.52-2.09-7.43-3.13-11.61-3.13s-8.07,1.04-11.61,3.13c-3.5,2.09-6.35,4.95-8.44,8.49-2.07,3.55-3.13,7.5-3.13,11.72s1.06,8.15,3.13,11.71c2.09,3.55,4.93,6.4,8.44,8.49,3.54,2.09,7.44,3.13,11.61,3.13s8.08-1.04,11.61-3.13c3.52-2.09,6.35-4.95,8.4-8.49,2.06-3.55,3.1-7.5,3.1-11.71s-1.04-8.17-3.1-11.72ZM1247.97,1548.9c-3.86,0-7.48-.98-10.75-2.9-3.27-1.94-5.9-4.6-7.83-7.9-1.94-3.28-2.91-6.94-2.91-10.85s.98-7.58,2.91-10.86c1.94-3.3,4.57-5.96,7.83-7.9,3.27-1.92,6.89-2.9,10.75-2.9s7.48.98,10.75,2.9c3.27,1.94,5.9,4.6,7.8,7.88,1.92,3.3,2.88,6.96,2.88,10.88s-.96,7.56-2.88,10.86c-1.9,3.28-4.53,5.95-7.8,7.88-3.27,1.92-6.87,2.9-10.75,2.9ZM1267.98,1515.53c-2.05-3.54-4.88-6.4-8.4-8.49-3.52-2.09-7.43-3.13-11.61-3.13s-8.07,1.04-11.61,3.13c-3.5,2.09-6.35,4.95-8.44,8.49-2.07,3.55-3.13,7.5-3.13,11.72s1.06,8.15,3.13,11.71c2.09,3.55,4.93,6.4,8.44,8.49,3.54,2.09,7.44,3.13,11.61,3.13s8.08-1.04,11.61-3.13c3.52-2.09,6.35-4.95,8.4-8.49,2.06-3.55,3.1-7.5,3.1-11.71s-1.04-8.17-3.1-11.72ZM1247.97,1548.9c-3.86,0-7.48-.98-10.75-2.9-3.27-1.94-5.9-4.6-7.83-7.9-1.94-3.28-2.91-6.94-2.91-10.85s.98-7.58,2.91-10.86c1.94-3.3,4.57-5.96,7.83-7.9,3.27-1.92,6.89-2.9,10.75-2.9s7.48.98,10.75,2.9c3.27,1.94,5.9,4.6,7.8,7.88,1.92,3.3,2.88,6.96,2.88,10.88s-.96,7.56-2.88,10.86c-1.9,3.28-4.53,5.95-7.8,7.88-3.27,1.92-6.87,2.9-10.75,2.9ZM1267.98,1515.53c-2.05-3.54-4.88-6.4-8.4-8.49-3.52-2.09-7.43-3.13-11.61-3.13s-8.07,1.04-11.61,3.13c-3.5,2.09-6.35,4.95-8.44,8.49-2.07,3.55-3.13,7.5-3.13,11.72s1.06,8.15,3.13,11.71c2.09,3.55,4.93,6.4,8.44,8.49,3.54,2.09,7.44,3.13,11.61,3.13s8.08-1.04,11.61-3.13c3.52-2.09,6.35-4.95,8.4-8.49,2.06-3.55,3.1-7.5,3.1-11.71s-1.04-8.17-3.1-11.72ZM1247.97,1548.9c-3.86,0-7.48-.98-10.75-2.9-3.27-1.94-5.9-4.6-7.83-7.9-1.94-3.28-2.91-6.94-2.91-10.85s.98-7.58,2.91-10.86c1.94-3.3,4.57-5.96,7.83-7.9,3.27-1.92,6.89-2.9,10.75-2.9s7.48.98,10.75,2.9c3.27,1.94,5.9,4.6,7.8,7.88,1.92,3.3,2.88,6.96,2.88,10.88s-.96,7.56-2.88,10.86c-1.9,3.28-4.53,5.95-7.8,7.88-3.27,1.92-6.87,2.9-10.75,2.9ZM1267.98,1515.53c-2.05-3.54-4.88-6.4-8.4-8.49-3.52-2.09-7.43-3.13-11.61-3.13s-8.07,1.04-11.61,3.13c-3.5,2.09-6.35,4.95-8.44,8.49-2.07,3.55-3.13,7.5-3.13,11.72s1.06,8.15,3.13,11.71c2.09,3.55,4.93,6.4,8.44,8.49,3.54,2.09,7.44,3.13,11.61,3.13s8.08-1.04,11.61-3.13c3.52-2.09,6.35-4.95,8.4-8.49,2.06-3.55,3.1-7.5,3.1-11.71s-1.04-8.17-3.1-11.72ZM1247.97,1548.9c-3.86,0-7.48-.98-10.75-2.9-3.27-1.94-5.9-4.6-7.83-7.9-1.94-3.28-2.91-6.94-2.91-10.85s.98-7.58,2.91-10.86c1.94-3.3,4.57-5.96,7.83-7.9,3.27-1.92,6.89-2.9,10.75-2.9s7.48.98,10.75,2.9c3.27,1.94,5.9,4.6,7.8,7.88,1.92,3.3,2.88,6.96,2.88,10.88s-.96,7.56-2.88,10.86c-1.9,3.28-4.53,5.95-7.8,7.88-3.27,1.92-6.87,2.9-10.75,2.9ZM1271.13,1513.73c-2.38-4.13-5.66-7.43-9.75-9.84-4.09-2.39-8.61-3.6-13.41-3.6s-9.3,1.21-13.41,3.6c-4.09,2.41-7.38,5.71-9.74,9.84-2.37,4.13-3.57,8.67-3.57,13.53s1.2,9.4,3.57,13.51c2.36,4.13,5.64,7.43,9.74,9.84,4.09,2.39,8.61,3.6,13.41,3.6s9.31-1.21,13.41-3.6c4.09-2.41,7.38-5.71,9.75-9.84,2.38-4.13,3.57-8.68,3.57-13.51s-1.2-9.4-3.57-13.53ZM1247.97,1552.52c-4.5,0-8.73-1.13-12.55-3.39-3.84-2.24-6.92-5.34-9.15-9.21-2.22-3.86-3.34-8.12-3.34-12.67s1.11-8.83,3.34-12.68c2.22-3.87,5.31-6.97,9.15-9.21,3.84-2.26,8.05-3.39,12.55-3.39s8.73,1.13,12.57,3.39c3.84,2.24,6.91,5.34,9.13,9.21,2.22,3.86,3.35,8.14,3.35,12.68s-1.13,8.81-3.35,12.67c-2.22,3.87-5.29,6.97-9.13,9.21-3.84,2.26-8.07,3.39-12.57,3.39ZM1271.08,1527.26c0-4.23-1.04-8.17-3.1-11.72-2.05-3.54-4.88-6.4-8.4-8.49-3.52-2.09-7.43-3.13-11.61-3.13s-8.07,1.04-11.61,3.13c-3.5,2.09-6.35,4.95-8.44,8.49-2.07,3.55-3.13,7.5-3.13,11.72s1.06,8.15,3.13,11.71c2.09,3.55,4.93,6.4,8.44,8.49,3.54,2.09,7.44,3.13,11.61,3.13s8.08-1.04,11.61-3.13c3.52-2.09,6.35-4.95,8.4-8.49,2.06-3.55,3.1-7.5,3.1-11.71ZM1247.97,1548.9c-3.86,0-7.48-.98-10.75-2.9-3.27-1.94-5.9-4.6-7.83-7.9-1.94-3.28-2.91-6.94-2.91-10.85s.98-7.58,2.91-10.86c1.94-3.3,4.57-5.96,7.83-7.9,3.27-1.92,6.89-2.9,10.75-2.9s7.48.98,10.75,2.9c3.27,1.94,5.9,4.6,7.8,7.88,1.92,3.3,2.88,6.96,2.88,10.88s-.96,7.56-2.88,10.86c-1.9,3.28-4.53,5.95-7.8,7.88-3.27,1.92-6.87,2.9-10.75,2.9ZM1267.98,1515.53c-2.05-3.54-4.88-6.4-8.4-8.49-3.52-2.09-7.43-3.13-11.61-3.13s-8.07,1.04-11.61,3.13c-3.5,2.09-6.35,4.95-8.44,8.49-2.07,3.55-3.13,7.5-3.13,11.72s1.06,8.15,3.13,11.71c2.09,3.55,4.93,6.4,8.44,8.49,3.54,2.09,7.44,3.13,11.61,3.13s8.08-1.04,11.61-3.13c3.52-2.09,6.35-4.95,8.4-8.49,2.06-3.55,3.1-7.5,3.1-11.71s-1.04-8.17-3.1-11.72ZM1247.97,1548.9c-3.86,0-7.48-.98-10.75-2.9-3.27-1.94-5.9-4.6-7.83-7.9-1.94-3.28-2.91-6.94-2.91-10.85s.98-7.58,2.91-10.86c1.94-3.3,4.57-5.96,7.83-7.9,3.27-1.92,6.89-2.9,10.75-2.9s7.48.98,10.75,2.9c3.27,1.94,5.9,4.6,7.8,7.88,1.92,3.3,2.88,6.96,2.88,10.88s-.96,7.56-2.88,10.86c-1.9,3.28-4.53,5.95-7.8,7.88-3.27,1.92-6.87,2.9-10.75,2.9ZM1267.98,1515.53c-2.05-3.54-4.88-6.4-8.4-8.49-3.52-2.09-7.43-3.13-11.61-3.13s-8.07,1.04-11.61,3.13c-3.5,2.09-6.35,4.95-8.44,8.49-2.07,3.55-3.13,7.5-3.13,11.72s1.06,8.15,3.13,11.71c2.09,3.55,4.93,6.4,8.44,8.49,3.54,2.09,7.44,3.13,11.61,3.13s8.08-1.04,11.61-3.13c3.52-2.09,6.35-4.95,8.4-8.49,2.06-3.55,3.1-7.5,3.1-11.71s-1.04-8.17-3.1-11.72ZM1247.97,1548.9c-3.86,0-7.48-.98-10.75-2.9-3.27-1.94-5.9-4.6-7.83-7.9-1.94-3.28-2.91-6.94-2.91-10.85s.98-7.58,2.91-10.86c1.94-3.3,4.57-5.96,7.83-7.9,3.27-1.92,6.89-2.9,10.75-2.9s7.48.98,10.75,2.9c3.27,1.94,5.9,4.6,7.8,7.88,1.92,3.3,2.88,6.96,2.88,10.88s-.96,7.56-2.88,10.86c-1.9,3.28-4.53,5.95-7.8,7.88-3.27,1.92-6.87,2.9-10.75,2.9ZM1267.98,1515.53c-2.05-3.54-4.88-6.4-8.4-8.49-3.52-2.09-7.43-3.13-11.61-3.13s-8.07,1.04-11.61,3.13c-3.5,2.09-6.35,4.95-8.44,8.49-2.07,3.55-3.13,7.5-3.13,11.72s1.06,8.15,3.13,11.71c2.09,3.55,4.93,6.4,8.44,8.49,3.54,2.09,7.44,3.13,11.61,3.13s8.08-1.04,11.61-3.13c3.52-2.09,6.35-4.95,8.4-8.49,2.06-3.55,3.1-7.5,3.1-11.71s-1.04-8.17-3.1-11.72ZM1247.97,1548.9c-3.86,0-7.48-.98-10.75-2.9-3.27-1.94-5.9-4.6-7.83-7.9-1.94-3.28-2.91-6.94-2.91-10.85s.98-7.58,2.91-10.86c1.94-3.3,4.57-5.96,7.83-7.9,3.27-1.92,6.89-2.9,10.75-2.9s7.48.98,10.75,2.9c3.27,1.94,5.9,4.6,7.8,7.88,1.92,3.3,2.88,6.96,2.88,10.88s-.96,7.56-2.88,10.86c-1.9,3.28-4.53,5.95-7.8,7.88-3.27,1.92-6.87,2.9-10.75,2.9ZM1267.98,1515.53c-2.05-3.54-4.88-6.4-8.4-8.49-3.52-2.09-7.43-3.13-11.61-3.13s-8.07,1.04-11.61,3.13c-3.5,2.09-6.35,4.95-8.44,8.49-2.07,3.55-3.13,7.5-3.13,11.72s1.06,8.15,3.13,11.71c2.09,3.55,4.93,6.4,8.44,8.49,3.54,2.09,7.44,3.13,11.61,3.13s8.08-1.04,11.61-3.13c3.52-2.09,6.35-4.95,8.4-8.49,2.06-3.55,3.1-7.5,3.1-11.71s-1.04-8.17-3.1-11.72ZM1247.97,1548.9c-3.86,0-7.48-.98-10.75-2.9-3.27-1.94-5.9-4.6-7.83-7.9-1.94-3.28-2.91-6.94-2.91-10.85s.98-7.58,2.91-10.86c1.94-3.3,4.57-5.96,7.83-7.9,3.27-1.92,6.89-2.9,10.75-2.9s7.48.98,10.75,2.9c3.27,1.94,5.9,4.6,7.8,7.88,1.92,3.3,2.88,6.96,2.88,10.88s-.96,7.56-2.88,10.86c-1.9,3.28-4.53,5.95-7.8,7.88-3.27,1.92-6.87,2.9-10.75,2.9Z"/>
      </g>
      <g>
        <polygon points="1306.27 1505.3 1326.57 1505.3 1326.57 1552.82 1330.19 1552.82 1330.19 1505.3 1350.41 1505.3 1350.41 1501.68 1306.27 1501.68 1306.27 1505.3"/>
        <path d="M1305.42,1500.83v5.31h20.31v47.53h5.29v-47.53h20.23v-5.31h-45.83ZM1349.57,1504.45h-20.23v47.53h-1.92v-47.53h-20.31v-1.94h42.46v1.94Z"/>
      </g>
      <g>
        <polygon points="1422.79 1525.44 1392.58 1525.44 1392.58 1501.68 1388.96 1501.68 1388.96 1525.44 1388.96 1552.82 1392.58 1552.82 1392.58 1529.06 1422.79 1529.06 1422.79 1552.82 1426.33 1552.82 1426.33 1527.17 1426.33 1501.68 1422.79 1501.68 1422.79 1525.44"/>
        <path d="M1421.95,1500.83v23.77h-28.53v-23.77h-5.29v52.84h5.29v-23.77h28.53v23.77h5.22v-52.84h-5.22ZM1425.49,1551.98h-1.85v-23.77h-31.9v23.77h-1.92v-49.47h1.92v23.77h31.9v-23.77h1.85v49.47Z"/>
      </g>
      <g>
        <rect x="1469.53" y="1501.68" width="3.54" height="51.14"/>
        <path d="M1468.69,1500.83v52.84h5.22v-52.84h-5.22ZM1472.23,1551.98h-1.85v-49.47h1.85v49.47Z"/>
      </g>
      <g>
        <polygon points="1551.66 1543.38 1516.26 1501.05 1516.26 1552.82 1519.8 1552.82 1519.8 1511.28 1555.2 1553.68 1555.2 1501.68 1551.66 1501.68 1551.66 1543.38"/>
        <path d="M1550.82,1500.83v40.22l-35.41-42.33v54.94h5.22v-40.07l35.41,42.41v-55.18h-5.22ZM1554.36,1551.36l-35.41-42.41v43.04h-1.85v-48.61l35.41,42.33v-43.19h1.85v48.85Z"/>
      </g>
      <g>
        <path d="M1617.91,1530.95h16.84v18.33h-14.79c-3.99,0-7.68-1.01-11.09-3.03-3.41-2.02-6.11-4.73-8.1-8.14-1.99-3.41-2.99-7.13-2.99-11.17s1-7.75,2.99-11.13c1.99-3.38,4.69-6.07,8.1-8.06,3.41-1.99,7.11-2.99,11.09-2.99,3.04,0,5.98.62,8.81,1.85,2.83,1.23,5.3,2.98,7.4,5.23l2.6-2.44c-2.41-2.62-5.26-4.67-8.54-6.14-3.28-1.47-6.7-2.2-10.27-2.2-4.67,0-8.97,1.17-12.9,3.5-3.93,2.33-7.06,5.48-9.36,9.44-2.31,3.96-3.46,8.27-3.46,12.94s1.15,9.06,3.46,13.02c2.31,3.96,5.43,7.1,9.36,9.4,3.93,2.31,8.23,3.46,12.9,3.46h18.49v-25.41h-20.53v3.54Z"/>
        <path d="M1617.07,1531.79h16.83v16.64h-13.95c-3.81,0-7.39-.98-10.66-2.9-3.27-1.94-5.9-4.58-7.8-7.85s-2.88-6.87-2.88-10.75.96-7.48,2.88-10.71c1.9-3.23,4.53-5.84,7.8-7.76,3.27-1.9,6.86-2.86,10.66-2.86,2.91,0,5.76.59,8.49,1.77,2.7,1.18,5.1,2.88,7.11,5.04l.57.62,3.82-3.59-.57-.62c-2.48-2.7-5.44-4.82-8.81-6.33-3.37-1.5-6.94-2.27-10.61-2.27-4.8,0-9.28,1.21-13.32,3.62-4.04,2.39-7.29,5.68-9.67,9.74-2.38,4.08-3.57,8.57-3.57,13.37s1.2,9.36,3.57,13.44c2.38,4.08,5.63,7.33,9.67,9.7,4.04,2.38,8.52,3.59,13.32,3.59h19.34v-27.1h-22.22v5.22ZM1618.75,1528.25h18.85v23.73h-17.65c-4.5,0-8.69-1.13-12.46-3.35-3.79-2.22-6.84-5.29-9.06-9.1-2.22-3.81-3.35-8.05-3.35-12.6s1.13-8.71,3.35-12.52c2.22-3.82,5.27-6.89,9.06-9.15,3.77-2.24,7.98-3.39,12.46-3.39,3.44,0,6.77.72,9.92,2.14,2.91,1.3,5.49,3.08,7.7,5.32l-1.38,1.3c-2.04-2.04-4.41-3.67-7.09-4.82-2.91-1.28-6-1.92-9.15-1.92-4.11,0-7.98,1.04-11.52,3.1-3.52,2.05-6.33,4.87-8.39,8.37-2.07,3.49-3.12,7.38-3.12,11.56s1.04,8.07,3.1,11.59c2.07,3.52,4.89,6.37,8.41,8.46,3.52,2.09,7.41,3.13,11.52,3.13h15.63v-20.01h-16.83v-1.85Z"/>
      </g>
    </g>
    <g>
      <polygon points="30 1367.98 60.48 1367.98 60.48 1447.68 83.95 1447.68 83.95 1367.98 114.57 1367.98 114.57 1347.51 30 1347.51 30 1367.98"/>
      <path d="M220.82,1401.03c3.96-5.44,5.94-11.97,5.94-19.6,0-6.68-1.48-12.59-4.44-17.74-2.96-5.15-7.16-9.13-12.59-11.95-5.44-2.81-11.78-4.22-19.03-4.22h-48.8v100.17h23.47v-33.06h13.59l25.47,33.06h27.9l-28.33-35.06c7.25-2.29,12.85-6.15,16.81-11.59ZM199.57,1392.09c-2.67,2.43-6.54,3.65-11.59,3.65h-22.75v-28.19h22.75c4.96,0,8.8,1.24,11.52,3.72,2.72,2.48,4.08,5.96,4.08,10.45s-1.34,7.94-4.01,10.37Z"/>
      <path d="M325.65,1404.47c0,7.63-1.96,13.64-5.87,18.03-3.91,4.39-9.25,6.58-16.03,6.58s-12.38-2.19-16.24-6.58c-3.86-4.39-5.8-10.4-5.8-18.03v-56.95h-23.47v56.95c0,14.31,3.98,25.45,11.95,33.41,7.96,7.97,19.15,11.95,33.56,11.95s25.57-3.98,33.49-11.95c7.92-7.96,11.88-19.1,11.88-33.41v-56.95h-23.47v56.95Z"/>
      <polygon points="406.5 1406.33 457.3 1406.33 457.3 1387.44 406.5 1387.44 406.5 1367.12 460.16 1367.12 460.16 1347.51 383.74 1347.51 383.74 1447.68 461.73 1447.68 461.73 1427.94 406.5 1427.94 406.5 1406.33"/>
      <polygon points="593.24 1381.57 578.79 1420.49 564.62 1381.57 551.17 1347.51 525.27 1347.51 566.48 1447.68 591.24 1447.68 632.45 1347.51 606.55 1347.51 593.24 1381.57"/>
      <rect x="656.92" y="1347.51" width="23.47" height="100.17"/>
      <path d="M785.85,1396.81c-6.68-5.2-16.79-8.56-30.34-10.09-7.06-.86-12.09-2.15-15.1-3.86-3.01-1.72-4.51-4.15-4.51-7.3s1.74-5.82,5.22-7.73c3.48-1.91,8.13-2.86,13.95-2.86,9.44,0,18.08,2.72,25.9,8.16l11.02-16.46c-5.06-3.62-10.9-6.44-17.53-8.44-6.63-2-13.43-3.01-20.39-3.01-8.11,0-15.26,1.29-21.47,3.86-6.2,2.58-11.02,6.2-14.45,10.88-3.43,4.68-5.15,10.07-5.15,16.17,0,9.06,3.17,16.03,9.52,20.89,6.34,4.87,16.34,8.06,29.98,9.59,7.06.76,12.21,2.05,15.45,3.86,3.24,1.81,4.87,4.34,4.87,7.58,0,3.43-1.74,6.15-5.22,8.16-3.48,2-8.18,3.01-14.1,3.01-11.83,0-22.18-3.48-31.05-10.45l-12.16,17.03c5.53,4.49,12.09,7.97,19.68,10.45,7.58,2.48,15.48,3.72,23.68,3.72s15.64-1.31,22.04-3.94c6.39-2.62,11.35-6.34,14.88-11.16,3.53-4.82,5.29-10.37,5.29-16.67,0-9.06-3.34-16.19-10.02-21.39Z"/>
      <rect x="825.2" y="1347.51" width="23.47" height="100.17"/>
      <path d="M961.5,1351.59c-8.16-4.34-17.63-6.51-28.41-6.51s-20.25,2.17-28.41,6.51c-8.16,4.34-14.45,10.47-18.89,18.39-4.44,7.92-6.65,17.13-6.65,27.62s2.22,19.7,6.65,27.62c4.44,7.92,10.73,14.05,18.89,18.39,8.16,4.34,17.62,6.51,28.41,6.51s20.25-2.17,28.41-6.51c8.16-4.34,14.45-10.47,18.89-18.39,4.44-7.92,6.65-17.12,6.65-27.62s-2.22-19.7-6.65-27.62c-4.44-7.92-10.73-14.05-18.89-18.39ZM959.79,1414.2c-2.53,4.77-6.11,8.47-10.73,11.09-4.63,2.63-9.95,3.94-15.96,3.94s-11.3-1.31-15.88-3.94c-4.58-2.62-8.13-6.32-10.66-11.09-2.53-4.77-3.79-10.3-3.79-16.6s1.26-11.83,3.79-16.6c2.53-4.77,6.08-8.47,10.66-11.09,4.58-2.62,9.87-3.94,15.88-3.94s11.33,1.31,15.96,3.94c4.63,2.63,8.2,6.32,10.73,11.09,2.53,4.77,3.79,10.3,3.79,16.6s-1.27,11.83-3.79,16.6Z"/>
      <polygon points="1083.5 1383 1083.78 1409.76 1038.42 1347.51 1017.38 1347.51 1017.38 1447.68 1040.71 1447.68 1040.71 1412.77 1040.42 1385.72 1085.79 1447.68 1106.82 1447.68 1106.82 1347.51 1083.5 1347.51 1083.5 1383"/>
      <path d="M1258.86,1351.88c-5.77-2.91-12.52-4.36-20.25-4.36h-47.94v100.17h23.47v-28.33h24.47c7.73,0,14.48-1.45,20.25-4.36,5.77-2.91,10.23-7.08,13.38-12.52,3.15-5.44,4.72-11.78,4.72-19.03s-1.57-13.59-4.72-19.03c-3.15-5.44-7.61-9.61-13.38-12.52ZM1249.28,1394.74c-2.91,2.77-6.85,4.15-11.81,4.15h-23.47v-30.62h23.47c4.96,0,8.89,1.38,11.81,4.15,2.91,2.77,4.36,6.49,4.36,11.16s-1.46,8.4-4.36,11.16Z"/>
      <path d="M1383.79,1401.03c3.96-5.44,5.94-11.97,5.94-19.6,0-6.68-1.48-12.59-4.44-17.74-2.96-5.15-7.15-9.13-12.59-11.95-5.44-2.81-11.78-4.22-19.03-4.22h-48.8v100.17h23.47v-33.06h13.59l25.47,33.06h27.9l-28.33-35.06c7.25-2.29,12.85-6.15,16.81-11.59ZM1362.54,1392.09c-2.67,2.43-6.54,3.65-11.59,3.65h-22.75v-28.19h22.75c4.96,0,8.8,1.24,11.52,3.72,2.72,2.48,4.08,5.96,4.08,10.45s-1.34,7.94-4.01,10.37Z"/>
      <path d="M1498.84,1351.59c-8.16-4.34-17.63-6.51-28.41-6.51s-20.25,2.17-28.41,6.51c-8.16,4.34-14.45,10.47-18.89,18.39-4.44,7.92-6.65,17.13-6.65,27.62s2.22,19.7,6.65,27.62c4.44,7.92,10.73,14.05,18.89,18.39,8.16,4.34,17.62,6.51,28.41,6.51s20.25-2.17,28.41-6.51c8.16-4.34,14.45-10.47,18.89-18.39,4.44-7.92,6.65-17.12,6.65-27.62s-2.22-19.7-6.65-27.62c-4.44-7.92-10.73-14.05-18.89-18.39ZM1497.13,1414.2c-2.53,4.77-6.11,8.47-10.73,11.09-4.63,2.63-9.95,3.94-15.96,3.94s-11.3-1.31-15.88-3.94c-4.58-2.62-8.13-6.32-10.66-11.09-2.53-4.77-3.79-10.3-3.79-16.6s1.26-11.83,3.79-16.6c2.53-4.77,6.08-8.47,10.66-11.09,4.58-2.62,9.87-3.94,15.88-3.94s11.33,1.31,15.96,3.94c4.63,2.63,8.2,6.32,10.73,11.09,2.53,4.77,3.79,10.3,3.79,16.6s-1.27,11.83-3.79,16.6Z"/>
      <path d="M1583.2,1367.83h29.19v37.06c0,7.63-1.88,13.52-5.65,17.67-3.77,4.15-8.99,6.22-15.67,6.22s-12.02-2.03-15.74-6.08c-3.72-4.05-5.63-9.85-5.72-17.39h-22.9c.09,14.12,4.03,25.04,11.81,32.77,7.77,7.73,18.63,11.59,32.56,11.59,8.97,0,16.84-1.81,23.61-5.44,6.77-3.62,12-8.78,15.67-15.45,3.67-6.68,5.51-14.55,5.51-23.61v-57.67h-52.66v20.32Z"/>
      <polygon points="1693.1 1406.33 1743.9 1406.33 1743.9 1387.44 1693.1 1387.44 1693.1 1367.12 1746.76 1367.12 1746.76 1347.51 1670.35 1347.51 1670.35 1447.68 1748.34 1447.68 1748.34 1427.94 1693.1 1427.94 1693.1 1406.33"/>
      <path d="M1841.07,1426.5c-4.39,1.72-8.97,2.58-13.74,2.58-6.01,0-11.33-1.31-15.96-3.94-4.63-2.62-8.21-6.32-10.73-11.09-2.53-4.77-3.79-10.25-3.79-16.46s1.26-11.69,3.79-16.46c2.53-4.77,6.1-8.47,10.73-11.09,4.63-2.62,9.95-3.94,15.96-3.94,8.97,0,16.65,3.05,23.04,9.16l14.45-14.45c-10.59-10.4-23.28-15.6-38.06-15.6-10.4,0-19.65,2.17-27.76,6.51-8.11,4.34-14.43,10.5-18.96,18.46-4.53,7.97-6.8,17.1-6.8,27.4s2.22,19.41,6.65,27.33c4.44,7.92,10.73,14.07,18.89,18.46,8.16,4.39,17.62,6.58,28.41,6.58,15.26,0,28.28-5.2,39.07-15.6l-13.74-15.31c-3.24,3.24-7.06,5.72-11.45,7.44Z"/>
      <polygon points="1885.43 1347.51 1885.43 1367.98 1915.91 1367.98 1915.91 1447.68 1939.38 1447.68 1939.38 1367.98 1970 1367.98 1970 1347.51 1885.43 1347.51"/>
    </g>
  </g>
</svg>