<?xml version="1.0" encoding="UTF-8"?>
<svg id="Layer_1" data-name="Layer 1" xmlns="http://www.w3.org/2000/svg" viewBox="0 0 2000 2000">
  <defs>
    <style>
      .cls-1 {
        fill: #fff;
      }
    </style>
  </defs>
  <path class="cls-1" d="M1146.14,757.37v14.96h7.23c41.22,0,69.57,41.43,54.62,79.85l-149.87,385.57-1.14,2.92-12.14,31.23-190.33-447.16c-10.56-24.84,7.65-52.41,34.65-52.41h18.41v-14.96h-257.44v14.96h13.19c27.93,0,53.17,16.68,64.11,42.39l255.05,599.26h34.07l248.18-590.98c12.9-30.71,42.94-50.67,76.23-50.67h8.89v-14.96h-203.71Z"/>
  <path class="cls-1" d="M761.45,649.83c.08-.07.16-.13.26-.18.99-.7,1.98-1.38,2.96-2.05,5.35-3.59,10.56-6.74,15.63-9.54,1.04-.57,2.08-1.12,3.12-1.67,33.09-17.43,58.89-18.91,63.08-19.06h.34c3.3-.31,6.58-.5,9.85-.58.96-.02,1.93-.03,2.89-.03h81.25v351l1.04,2.44,58.13,136.6,50.49,118.65.07.15v-608.83h89.5c1.07,0,2.16.02,3.25.03,3.38.07,6.78.28,10.19.58,21.2,2.01,43.1,8.72,63.08,19.06,1.04.55,2.08,1.1,3.12,1.67,5.38,2.91,10.61,6.09,15.63,9.54,1.01.67,1.98,1.35,2.96,2.05.1.05.18.11.26.18,24.86,17.37,51.79,44.04,75.94,84.98l-10.45-118.09-2.71-30.71h-602.66l-2.71,30.71-10.43,118.09c24.14-40.94,51.08-67.62,75.93-84.98Z"/>
</svg>